<svg width="410" height="410" viewBox="0 0 410 410" fill="none" xmlns="http://www.w3.org/2000/svg">
<g clip-path="url(#clip0_374_326)">
<rect width="410" height="410" rx="20" fill="#E9E8FF"/>
<g filter="url(#filter0_d_374_326)">
<rect x="41" y="37" width="329" height="336" rx="18.2274" fill="white"/>
</g>
<path d="M41 55.2274C41 45.1607 49.1607 37 59.2274 37H351.587C361.654 37 369.815 45.1607 369.815 55.2274V84.3005C369.815 86.4072 368.107 88.115 366 88.115H41V55.2274Z" fill="#070E27"/>
<circle cx="68.0318" cy="67.0835" r="6.43319" fill="white"/>
<circle cx="87.3314" cy="67.0835" r="6.43319" fill="#00FF29"/>
<circle cx="106.631" cy="67.0835" r="6.43319" fill="#6758C3"/>
<rect x="62" y="114.414" width="296.983" height="13.3174" rx="6.65868" transform="rotate(-0.0799219 62 114.414)" fill="#24160B" fill-opacity="0.04"/>
<rect x="62" y="213.414" width="296.983" height="13.3174" rx="6.65868" transform="rotate(-0.0799219 62 213.414)" fill="#24160B" fill-opacity="0.04"/>
<rect x="62" y="148.889" width="296.983" height="13.3174" rx="6.65868" transform="rotate(-0.0799219 62 148.889)" fill="#24160B" fill-opacity="0.04"/>
<rect x="62" y="247.889" width="296.983" height="13.3174" rx="6.65868" transform="rotate(-0.0799219 62 247.889)" fill="#594FF4"/>
<rect x="62" y="183.414" width="296.983" height="13.3174" rx="6.65868" transform="rotate(-0.0799219 62 183.414)" fill="#594FF4"/>
<rect x="62" y="282.414" width="296.983" height="13.3174" rx="6.65868" transform="rotate(-0.0799219 62 282.414)" fill="#F5F5F4"/>
<rect x="62" y="312.414" width="296.983" height="13.3174" rx="6.65868" transform="rotate(-0.0799219 62 312.414)" fill="#594FF4"/>
<rect x="62" y="342.414" width="296.983" height="13.3174" rx="6.65868" transform="rotate(-0.0799219 62 342.414)" fill="#24160B" fill-opacity="0.04"/>
</g>
<defs>
<filter id="filter0_d_374_326" x="-53.6009" y="-54.5493" width="518.202" height="525.202" filterUnits="userSpaceOnUse" color-interpolation-filters="sRGB">
<feFlood flood-opacity="0" result="BackgroundImageFix"/>
<feColorMatrix in="SourceAlpha" type="matrix" values="0 0 0 0 0 0 0 0 0 0 0 0 0 0 0 0 0 0 127 0" result="hardAlpha"/>
<feOffset dy="3.05164"/>
<feGaussianBlur stdDeviation="47.3005"/>
<feComposite in2="hardAlpha" operator="out"/>
<feColorMatrix type="matrix" values="0 0 0 0 0 0 0 0 0 0 0 0 0 0 0 0 0 0 0.1 0"/>
<feBlend mode="normal" in2="BackgroundImageFix" result="effect1_dropShadow_374_326"/>
<feBlend mode="normal" in="SourceGraphic" in2="effect1_dropShadow_374_326" result="shape"/>
</filter>
<clipPath id="clip0_374_326">
<rect width="410" height="410" fill="white"/>
</clipPath>
</defs>
</svg>
