<svg width="410" height="410" viewBox="0 0 410 410" fill="none" xmlns="http://www.w3.org/2000/svg">
<g clip-path="url(#clip0_374_325)">
<rect width="410" height="410" rx="20" fill="#E9E8FF"/>
<g filter="url(#filter0_d_374_325)">
<rect x="47" y="45" width="328.815" height="325" rx="18.2274" fill="white"/>
</g>
<path d="M47 63.2274C47 53.1607 55.1607 45 65.2274 45H357.587C367.654 45 375.815 53.1607 375.815 63.2274V92.3005C375.815 94.4072 374.107 96.115 372 96.115H47V63.2274Z" fill="#F5F5F5"/>
<circle cx="74.0318" cy="75.0835" r="6.43319" fill="#ED6B60"/>
<circle cx="93.3314" cy="75.0835" r="6.43319" fill="#EDBE5C"/>
<circle cx="112.631" cy="75.0835" r="6.43319" fill="#64C358"/>
<path d="M298.2 233.5C300.564 233.5 301.746 233.5 302.689 234.006C303.479 234.431 304.191 235.196 304.557 236.016C304.993 236.992 304.913 238.093 304.753 240.294C303.809 253.247 300.177 265.864 294.088 277.335C293.053 279.285 292.535 280.26 291.647 280.855C290.901 281.354 289.891 281.624 288.996 281.563C287.929 281.491 286.927 280.862 284.925 279.605L280.806 277.018C278.791 275.753 277.783 275.12 277.269 274.31C276.787 273.553 276.584 272.818 276.607 271.92C276.632 270.961 277.22 269.803 278.397 267.487C282.709 259.001 285.366 249.77 286.228 240.291C286.463 237.704 286.58 236.41 287.069 235.584C287.527 234.812 288.09 234.298 288.9 233.912C289.767 233.5 290.956 233.5 293.336 233.5H298.2Z" fill="#F6F6F5"/>
<path d="M281.654 284.444C283.567 285.834 284.523 286.528 284.988 287.492C285.378 288.3 285.504 289.337 285.319 290.215C285.099 291.262 284.387 292.105 282.964 293.792C274.1 304.299 263.008 312.744 250.461 318.496C237.914 324.247 224.276 327.138 210.531 326.995C208.324 326.972 207.22 326.961 206.283 326.445C205.497 326.012 204.793 325.239 204.436 324.416C204.009 323.435 204.108 322.257 204.304 319.901L204.708 315.053C204.905 312.682 205.004 311.497 205.486 310.667C205.938 309.892 206.497 309.373 207.305 308.982C208.168 308.563 209.467 308.553 212.065 308.534C222.64 308.454 233.107 306.139 242.767 301.711C252.427 297.283 261.013 290.864 267.976 282.904C269.687 280.949 270.542 279.971 271.423 279.591C272.246 279.235 273.004 279.149 273.887 279.314C274.83 279.489 275.793 280.188 277.718 281.586L281.654 284.444Z" fill="#F6F6F5"/>
<path d="M198.43 319.209C198.074 321.546 197.895 322.715 197.253 323.57C196.714 324.288 195.85 324.876 194.985 325.114C193.954 325.399 192.878 325.153 190.726 324.663C181.349 322.526 172.357 318.955 164.069 314.076C162.167 312.957 161.216 312.397 160.661 311.483C160.195 310.715 159.97 309.695 160.07 308.803C160.189 307.74 160.861 306.768 162.205 304.823L164.971 300.821C166.324 298.864 167 297.885 167.832 297.407C168.61 296.959 169.353 296.788 170.249 296.851C171.206 296.919 172.337 297.557 174.599 298.835C180.536 302.188 186.902 304.716 193.522 306.35C196.044 306.972 197.305 307.284 198.047 307.891C198.742 308.46 199.165 309.094 199.424 309.954C199.701 310.872 199.522 312.048 199.163 314.4L198.43 319.209Z" fill="#F6F6F5"/>
<path d="M157.738 301.519C156.272 303.374 155.539 304.301 154.558 304.726C153.734 305.083 152.693 305.167 151.823 304.946C150.786 304.683 149.972 303.938 148.345 302.447C136.999 292.054 128.366 278.996 123.257 264.409C117.396 247.678 116.413 229.625 120.422 212.356C124.431 195.087 133.267 179.314 145.899 166.876C156.913 156.032 170.416 148.112 185.18 143.781C187.298 143.16 188.356 142.849 189.403 143.07C190.281 143.255 191.179 143.789 191.762 144.472C192.455 145.286 192.705 146.441 193.204 148.753L194.23 153.507C194.732 155.833 194.983 156.996 194.763 157.93C194.557 158.803 194.173 159.462 193.515 160.072C192.811 160.725 191.572 161.112 189.092 161.888C177.746 165.439 167.372 171.646 158.854 180.033C148.716 190.015 141.625 202.673 138.408 216.532C135.191 230.39 135.98 244.878 140.683 258.305C144.635 269.587 151.213 279.729 159.835 287.915C161.719 289.704 162.661 290.599 163.005 291.494C163.327 292.332 163.382 293.093 163.182 293.967C162.968 294.903 162.23 295.836 160.755 297.703L157.738 301.519Z" fill="#594FF4"/>
<path d="M199.586 147.622C199.261 145.281 199.099 144.11 199.471 143.107C199.783 142.265 200.443 141.455 201.204 140.98C202.111 140.414 203.213 140.342 205.415 140.198C225.486 138.888 245.454 144.09 262.334 155.026C264.187 156.226 265.113 156.826 265.628 157.763C266.061 158.55 266.242 159.579 266.104 160.466C265.939 161.522 265.226 162.465 263.8 164.351L260.866 168.231C259.431 170.128 258.713 171.077 257.862 171.519C257.065 171.933 256.315 172.072 255.423 171.971C254.47 171.863 253.367 171.176 251.162 169.803C238.239 161.755 223.165 157.829 207.958 158.548C205.363 158.671 204.065 158.732 203.18 158.361C202.352 158.014 201.766 157.527 201.272 156.777C200.745 155.976 200.581 154.797 200.254 152.441L199.586 147.622Z" fill="#070E27"/>
<path d="M268.362 168.051C269.913 166.266 270.688 165.374 271.688 164.994C272.527 164.676 273.572 164.641 274.43 164.902C275.454 165.213 276.232 165.995 277.789 167.56C291.974 181.819 301.186 200.283 304.048 220.192C304.362 222.376 304.519 223.469 304.152 224.473C303.844 225.316 303.188 226.13 302.429 226.609C301.525 227.18 300.346 227.263 297.987 227.428L293.135 227.769C290.761 227.935 289.575 228.019 288.681 227.668C287.846 227.34 287.248 226.867 286.738 226.128C286.192 225.339 285.984 224.057 285.569 221.492C283.133 206.464 276.179 192.526 265.637 181.543C263.838 179.668 262.938 178.731 262.636 177.82C262.353 176.969 262.334 176.206 262.574 175.341C262.831 174.417 263.611 173.519 265.172 171.723L268.362 168.051Z" fill="#070E27"/>
<path d="M201.953 252.296C199.572 252.296 197.455 251.796 195.603 250.797C193.78 249.797 192.354 248.43 191.325 246.695C190.325 244.931 189.825 242.932 189.825 240.697V218.911H194.191V240.609C194.191 242.109 194.515 243.446 195.162 244.622C195.838 245.769 196.749 246.666 197.896 247.313C199.072 247.96 200.424 248.283 201.953 248.283C203.482 248.283 204.82 247.96 205.967 247.313C207.143 246.666 208.054 245.769 208.701 244.622C209.377 243.446 209.715 242.109 209.715 240.609V218.911H214.081V240.697C214.081 242.932 213.567 244.931 212.538 246.695C211.538 248.43 210.127 249.797 208.304 250.797C206.481 251.796 204.364 252.296 201.953 252.296ZM217.127 251.767L227.843 235.096L217.391 218.911H222.331L231.195 232.715H229.343L238.207 218.911H243.147L232.695 235.096L243.411 251.767H238.472L229.343 237.478H231.195L222.022 251.767H217.127Z" fill="black"/>
</g>
<defs>
<filter id="filter0_d_374_325" x="-47.6009" y="-46.5493" width="518.016" height="514.202" filterUnits="userSpaceOnUse" color-interpolation-filters="sRGB">
<feFlood flood-opacity="0" result="BackgroundImageFix"/>
<feColorMatrix in="SourceAlpha" type="matrix" values="0 0 0 0 0 0 0 0 0 0 0 0 0 0 0 0 0 0 127 0" result="hardAlpha"/>
<feOffset dy="3.05164"/>
<feGaussianBlur stdDeviation="47.3005"/>
<feComposite in2="hardAlpha" operator="out"/>
<feColorMatrix type="matrix" values="0 0 0 0 0 0 0 0 0 0 0 0 0 0 0 0 0 0 0.1 0"/>
<feBlend mode="normal" in2="BackgroundImageFix" result="effect1_dropShadow_374_325"/>
<feBlend mode="normal" in="SourceGraphic" in2="effect1_dropShadow_374_325" result="shape"/>
</filter>
<clipPath id="clip0_374_325">
<rect width="410" height="410" fill="white"/>
</clipPath>
</defs>
</svg>
