<svg width="50" height="50" viewBox="0 0 50 50" fill="none" xmlns="http://www.w3.org/2000/svg">
<g id="Google logo" clip-path="url(#clip0_23_914)">
<path id="Vector" d="M42.5 0H7.5C3.35786 0 0 3.35786 0 7.5V42.5C0 46.6421 3.35786 50 7.5 50H42.5C46.6421 50 50 46.6421 50 42.5V7.5C50 3.35786 46.6421 0 42.5 0Z" fill="white"/>
<path id="Vector_2" d="M37.6953 39.0625C42.0898 34.9609 44.043 28.125 42.8711 21.582H25.3906V28.8086H35.3516C34.9609 31.1523 33.5938 33.1055 31.6406 34.375L37.6953 39.0625Z" fill="#4285F4"/>
<path id="Vector_3" d="M8.78906 33.3008C10.0737 35.8314 11.9161 38.0374 14.1773 39.7525C16.4386 41.4676 19.0596 42.6469 21.8429 43.2017C24.6262 43.7565 27.4992 43.6722 30.2451 42.9552C32.9911 42.2382 35.5385 40.9072 37.6953 39.0625L31.6406 34.375C26.4648 37.793 17.8711 36.5234 14.9414 28.5156L8.78906 33.3008Z" fill="#34A853"/>
<path id="Vector_4" d="M14.9415 28.5156C14.1602 26.0742 14.1602 23.8281 14.9415 21.3867L8.78915 16.6016C6.54306 21.0938 5.85947 27.4414 8.78915 33.3008L14.9415 28.5156Z" fill="#FBBC02"/>
<path id="Vector_5" d="M14.9414 21.3866C17.0898 14.6483 26.2695 10.7421 32.4219 16.5038L37.793 11.2303C30.1758 3.90612 15.332 4.19909 8.78906 16.6014L14.9414 21.3866Z" fill="#EA4335"/>
</g>
<defs>
<clipPath id="clip0_23_914">
<rect width="50" height="50" fill="white"/>
</clipPath>
</defs>
</svg>
