<svg width="370" height="370" viewBox="0 0 370 370" fill="none" xmlns="http://www.w3.org/2000/svg">
<rect width="370" height="370" rx="15" fill="white"/>
<path d="M0.5 15C0.5 6.99187 6.99187 0.5 15 0.5H355C363.008 0.5 369.5 6.99187 369.5 15V39.5H0.5V15Z" fill="#F5F5F5" stroke="white"/>
<circle cx="105" cy="145" r="75" fill="#F5F5F5"/>
<path d="M125 140C125 126.2 113.8 115 100 115C86.2 115 75 126.2 75 140C75 152.1 83.6 162.175 95 164.5V147.5H90V140H95V133.75C95 128.925 98.925 125 103.75 125H110V132.5H105C103.625 132.5 102.5 133.625 102.5 135V140H110V147.5H102.5V164.875C115.125 163.625 125 152.975 125 140Z" fill="#594FF4"/>
<circle cx="265" cy="265" r="75" fill="#F5F5F5"/>
<path d="M282.57 245.002C284.394 244.995 286.219 245.014 288.042 245.057L288.527 245.075C289.087 245.095 289.64 245.12 290.307 245.15C292.967 245.275 294.782 245.695 296.375 246.312C298.025 246.947 299.415 247.807 300.805 249.197C302.076 250.446 303.06 251.957 303.687 253.625C304.305 255.217 304.725 257.035 304.85 259.695C304.88 260.36 304.905 260.915 304.925 261.475L304.94 261.96C304.984 263.783 305.004 265.606 304.997 267.43L305 269.295V272.57C305.006 274.394 304.987 276.219 304.942 278.042L304.927 278.527C304.907 279.087 304.882 279.64 304.852 280.307C304.727 282.967 304.302 284.782 303.687 286.375C303.062 288.044 302.078 289.556 300.805 290.805C299.555 292.076 298.043 293.059 296.375 293.687C294.782 294.305 292.967 294.725 290.307 294.85C289.64 294.88 289.087 294.905 288.527 294.925L288.042 294.94C286.219 294.984 284.394 295.004 282.57 294.997L280.705 295H277.432C275.608 295.006 273.784 294.987 271.96 294.942L271.475 294.927C270.882 294.906 270.288 294.881 269.695 294.852C267.035 294.727 265.22 294.302 263.625 293.687C261.957 293.061 260.446 292.077 259.197 290.805C257.925 289.556 256.941 288.044 256.312 286.375C255.695 284.782 255.275 282.967 255.15 280.307C255.122 279.714 255.097 279.121 255.075 278.527L255.062 278.042C255.016 276.219 254.996 274.394 255 272.57V267.43C254.993 265.606 255.011 263.783 255.055 261.96L255.072 261.475C255.092 260.915 255.117 260.36 255.147 259.695C255.272 257.032 255.692 255.22 256.31 253.625C256.938 251.957 257.925 250.446 259.2 249.2C260.447 247.927 261.957 246.941 263.625 246.312C265.22 245.695 267.032 245.275 269.695 245.15L271.475 245.075L271.96 245.062C273.783 245.016 275.606 244.996 277.43 245L282.57 245.002ZM280 257.502C278.344 257.479 276.699 257.785 275.162 258.403C273.625 259.02 272.227 259.937 271.047 261.1C269.868 262.263 268.931 263.649 268.292 265.177C267.652 266.705 267.323 268.345 267.323 270.001C267.323 271.658 267.652 273.297 268.292 274.826C268.931 276.354 269.868 277.739 271.047 278.902C272.227 280.065 273.625 280.982 275.162 281.6C276.699 282.217 278.344 282.523 280 282.5C283.315 282.5 286.495 281.183 288.839 278.839C291.183 276.495 292.5 273.315 292.5 270C292.5 266.685 291.183 263.505 288.839 261.161C286.495 258.817 283.315 257.502 280 257.502ZM280 262.502C280.996 262.484 281.986 262.664 282.912 263.033C283.838 263.402 284.681 263.951 285.392 264.649C286.103 265.347 286.668 266.18 287.054 267.098C287.439 268.017 287.638 269.004 287.638 270C287.638 270.996 287.44 271.983 287.055 272.902C286.669 273.821 286.105 274.654 285.394 275.352C284.683 276.05 283.84 276.6 282.914 276.968C281.989 277.337 280.999 277.518 280.002 277.5C278.013 277.5 276.106 276.71 274.699 275.303C273.293 273.897 272.502 271.989 272.502 270C272.502 268.011 273.293 266.103 274.699 264.697C276.106 263.29 278.013 262.5 280.002 262.5L280 262.502ZM293.125 253.752C292.318 253.785 291.556 254.128 290.996 254.71C290.437 255.292 290.125 256.068 290.125 256.875C290.125 257.682 290.437 258.458 290.996 259.04C291.556 259.622 292.318 259.965 293.125 259.997C293.954 259.997 294.749 259.668 295.335 259.082C295.921 258.496 296.25 257.701 296.25 256.872C296.25 256.044 295.921 255.249 295.335 254.663C294.749 254.077 293.954 253.747 293.125 253.747V253.752Z" fill="#594FF4"/>
<circle cx="185" cy="205" r="74" fill="#594FF4" stroke="white" stroke-width="2"/>
<path d="M203.75 184.375C203.75 182.883 204.343 181.452 205.398 180.398C206.452 179.343 207.883 178.75 209.375 178.75C210.867 178.75 212.298 179.343 213.352 180.398C214.407 181.452 215 182.883 215 184.375V225.625C215 227.117 214.407 228.548 213.352 229.602C212.298 230.657 210.867 231.25 209.375 231.25C207.883 231.25 206.452 230.657 205.398 229.602C204.343 228.548 203.75 227.117 203.75 225.625V184.375ZM200 187.09C192.249 190.652 182.979 192.644 173.75 193.3V216.689C175.112 216.766 176.472 216.872 177.83 217.007C185.529 217.772 192.972 219.512 200 222.857V187.09ZM170 216.494V193.502C167.45 193.604 164.754 193.664 162.47 193.701C160.484 193.729 158.588 194.535 157.191 195.947C155.793 197.359 155.007 199.264 155 201.25V208.75C155 212.897 158.36 216.235 162.477 216.284C163.098 216.291 163.718 216.301 164.337 216.314C166.226 216.351 168.113 216.411 170 216.494ZM175.212 220.547C176.281 220.626 177.346 220.724 178.4 220.84L179.349 227.177C179.452 227.72 179.434 228.278 179.297 228.813C179.159 229.348 178.905 229.845 178.553 230.271C178.201 230.696 177.759 231.038 177.26 231.273C176.76 231.508 176.215 231.629 175.663 231.629H173.608C172.879 231.629 172.165 231.416 171.555 231.017C170.945 230.618 170.465 230.05 170.172 229.382L165.245 220.082C167.361 220.135 169.476 220.215 171.59 220.322C172.816 220.386 174.028 220.461 175.212 220.547Z" fill="white"/>
</svg>
