<svg width="370" height="370" viewBox="0 0 370 370" fill="none" xmlns="http://www.w3.org/2000/svg">
<mask id="mask0_0_142" style="mask-type:alpha" maskUnits="userSpaceOnUse" x="0" y="0" width="370" height="370">
<rect width="370" height="370" rx="15" fill="white"/>
</mask>
<g mask="url(#mask0_0_142)">
<rect x="20" y="320" width="330" height="110" rx="15" fill="#F5F5F5"/>
<rect x="25" y="325" width="100" height="100" rx="10" fill="#594FF4"/>
<rect x="135" y="338" width="160" height="20" rx="10" fill="#CFDDDB"/>
<rect x="135" y="368" width="160" height="8" rx="4" fill="#594FF4"/>
<rect x="20" y="60" width="330" height="110" rx="15" fill="#F5F5F5"/>
<rect x="25" y="65" width="100" height="100" rx="10" fill="#594FF4"/>
<rect x="135" y="78" width="160" height="20" rx="10" fill="#070E27"/>
<rect x="135" y="108" width="160" height="8" rx="4" fill="#594FF4"/>
<rect x="135" y="126" width="140" height="8" rx="4" fill="#594FF4"/>
<rect x="135" y="144" width="120" height="8" rx="4" fill="#594FF4"/>
<rect x="20" y="190" width="330" height="110" rx="15" fill="#F5F5F5"/>
<rect x="25" y="195" width="100" height="100" rx="10" fill="#594FF4"/>
<rect x="135" y="208" width="160" height="20" rx="10" fill="#CFDDDB"/>
<rect x="135" y="238" width="160" height="8" rx="4" fill="#594FF4"/>
<rect x="135" y="256" width="140" height="8" rx="4" fill="#594FF4"/>
<rect x="135" y="274" width="120" height="8" rx="4" fill="#594FF4"/>
</g>
</svg>
