<svg width="410" height="410" viewBox="0 0 410 410" fill="none" xmlns="http://www.w3.org/2000/svg">
<g clip-path="url(#clip0_373_275)">
<rect width="410" height="410" rx="20" fill="#E9E8FF"/>
<g filter="url(#filter0_d_373_275)">
<rect x="34" y="88" width="298" height="264" rx="17.2057" fill="white"/>
<path d="M34 105.206C34 95.7032 41.7032 88 51.2057 88H314.794C324.297 88 332 95.7032 332 105.206V132H34V105.206Z" fill="#594FF4"/>
<circle cx="53.2299" cy="108.242" r="6.07259" fill="#262121"/>
<circle cx="71.4476" cy="108.242" r="6.07259" fill="#EDBE5C"/>
<circle cx="89.6657" cy="108.242" r="6.07259" fill="#64C358"/>
</g>
<path d="M39.0472 309.176L35.2269 324.3C35.0762 324.897 35 325.509 35 326.125V341C35 346.523 39.4771 351 45 351H322C327.523 351 332 346.523 332 341V222.431C332 217.828 326.132 215.884 323.384 219.577C322.482 220.789 321.06 221.504 319.549 221.504H317.484C314.922 221.504 312.559 222.885 311.303 225.118L308.175 230.676C307.357 232.13 305.357 232.363 304.226 231.136C302.832 229.623 300.058 230.338 299.389 232.283C298.042 236.205 295.983 241.29 294.206 245.518C293.08 248.198 290.486 249.957 287.582 250.052C284.152 250.164 281.083 247.936 280.127 244.641L277.853 236.809C277.186 234.511 275.081 232.93 272.688 232.93H271.929C270.36 232.93 268.925 233.815 268.222 235.217C266.574 238.497 261.792 238.179 260.593 234.71L260.263 233.755C259.998 232.988 259.534 232.305 258.918 231.777L258.839 231.71C256.21 229.454 252.136 230.526 250.956 233.783L239.694 264.864C239.382 265.725 238.896 266.512 238.265 267.176C234.981 270.632 228.796 269.816 226.171 265.836C222.755 260.655 218.461 254.604 215.536 250.729C214.942 249.943 214.228 249.26 213.425 248.689L212.077 247.731C209.408 245.834 207.837 242.749 207.872 239.475L207.977 229.481C207.989 228.354 207.605 227.258 206.891 226.386C204.797 223.827 200.806 224.097 199.075 226.913L189.887 241.863C188.539 244.058 186.148 245.395 183.572 245.395C180.284 245.395 177.389 243.229 176.462 240.074L174.491 233.377C174.336 232.85 174.248 232.306 174.227 231.758C174.136 229.288 172.653 227.067 170.416 226.016C166.698 224.27 162.26 226.226 161.093 230.164L156.472 245.76C156.322 246.267 156.132 246.76 155.904 247.237L146.454 266.979C146.029 267.868 145.737 268.814 145.589 269.787L141.671 295.443C141.554 296.203 141.343 296.947 141.041 297.654L136.952 307.238C135.703 310.168 131.653 310.433 130.032 307.692C129.332 306.51 128.06 305.784 126.687 305.784H125.145C121.84 305.784 118.906 303.353 117.898 300.204C117.447 298.793 116.988 297.467 116.671 296.588L108.81 275.928C107 271.17 100.343 270.971 98.2513 275.612C97.3271 277.662 95.2868 278.981 93.0377 278.981H86.3494C83.6802 278.981 81.2254 277.519 79.9538 275.172L78.5835 272.643C78.1562 271.854 77.3313 271.363 76.4344 271.363C75.2121 271.363 74.1778 272.266 74.0126 273.477L72.7455 282.767C72.5873 283.927 72.2296 285.052 71.7934 286.138C70.6088 289.09 68.7014 294.678 67.3971 298.752C66.8387 300.496 65.2258 301.697 63.3947 301.697H62.8999C61.2161 301.697 59.766 300.51 59.4338 298.859C58.7435 295.428 54.0215 294.978 52.6957 298.217L48.3123 308.926C47.4688 310.986 44.5417 310.961 43.7341 308.886C42.8636 306.649 39.635 306.849 39.0472 309.176Z" fill="url(#paint0_linear_373_275)"/>
<g filter="url(#filter1_d_373_275)">
<path d="M35 325L39.053 308.564C39.6304 306.222 42.8827 306.025 43.7391 308.279V308.279C44.5351 310.374 47.4897 310.399 48.3213 308.318L52.6788 297.413C53.9913 294.129 58.7755 294.575 59.4572 298.046V298.046C59.7842 299.711 61.2435 300.911 62.9399 300.911H63.4085C65.2402 300.911 66.8502 299.702 67.3765 297.947C68.5515 294.031 70.1451 288.928 71.215 286.118C71.6286 285.031 71.976 283.913 72.1246 282.76L73.3573 273.197C73.5533 271.677 74.8476 270.538 76.3803 270.538V270.538C77.5012 270.538 78.5316 271.154 79.0634 272.14L80.27 274.379C81.545 276.744 84.0154 278.219 86.7026 278.219H92.7666C95.0752 278.219 97.1691 276.865 98.116 274.759V274.759C100.262 269.989 107.106 270.2 108.953 275.094L116.72 295.675C117.048 296.605 117.527 298.026 117.994 299.526C118.971 302.671 121.886 305.101 125.179 305.101H126.722C128.107 305.101 129.387 305.839 130.079 307.038V307.038C131.684 309.819 135.78 309.554 137.014 306.59L141.124 296.723C141.413 296.027 141.616 295.297 141.727 294.552L145.665 268.138C145.808 267.183 146.088 266.254 146.496 265.379L155.99 245.062C156.21 244.591 156.392 244.104 156.537 243.605L160.546 229.735C161.812 225.353 166.742 223.193 170.822 225.231L171.082 225.361C173.397 226.518 174.86 228.884 174.86 231.472V231.472C174.86 232.144 174.959 232.812 175.154 233.455L176.943 239.352C177.844 242.323 180.583 244.355 183.688 244.355V244.355C186.143 244.355 188.421 243.078 189.701 240.983L198.627 226.384C200.567 223.209 205.053 222.879 207.437 225.736V225.736C208.253 226.713 208.7 227.946 208.7 229.219V239.234C208.7 242.45 210.246 245.469 212.855 247.348L213.773 248.009C214.586 248.595 215.307 249.299 215.907 250.102C218.917 254.127 223.338 260.203 226.765 265.318C229.224 268.988 234.977 269.776 238.037 266.59V266.59C238.632 265.971 239.091 265.233 239.383 264.426L250.591 233.449C251.914 229.793 256.498 228.608 259.427 231.165L259.7 231.403C260.25 231.883 260.665 232.5 260.902 233.19L261.119 233.821C262.242 237.087 266.745 237.383 268.285 234.293V234.293C268.944 232.971 270.293 232.136 271.769 232.136H272.865C275.376 232.136 277.587 233.79 278.297 236.199L280.631 244.119C281.526 247.157 284.314 249.243 287.481 249.243V249.243C290.261 249.243 292.795 247.634 293.909 245.087C295.712 240.965 297.835 235.794 299.177 231.68C299.838 229.657 302.888 228.789 304.331 230.354V230.354C305.455 231.571 307.442 231.326 308.235 229.871L311.291 224.265C312.517 222.015 314.874 220.615 317.436 220.615H317.954C320.449 220.615 322.796 219.433 324.28 217.428L332 207" stroke="#594FF4" stroke-width="2.14286"/>
</g>
<g clip-path="url(#clip1_373_275)">
<path d="M376 257L347.418 228.418L376 257ZM347.418 228.418C355.154 220.682 359.5 210.19 359.5 199.25C359.5 188.31 355.154 177.818 347.418 170.082C339.682 162.346 329.19 158 318.25 158C307.31 158 296.818 162.346 289.082 170.082C281.346 177.818 277 188.31 277 199.25C277 210.19 281.346 220.682 289.082 228.418C296.818 236.154 307.31 240.5 318.25 240.5C329.19 240.5 339.682 236.154 347.418 228.418Z" fill="white"/>
<path d="M376 257L347.418 228.418M347.418 228.418C355.154 220.682 359.5 210.19 359.5 199.25C359.5 188.31 355.154 177.818 347.418 170.082C339.682 162.346 329.19 158 318.25 158C307.31 158 296.818 162.346 289.082 170.082C281.346 177.818 277 188.31 277 199.25C277 210.19 281.346 220.682 289.082 228.418C296.818 236.154 307.31 240.5 318.25 240.5C329.19 240.5 339.682 236.154 347.418 228.418Z" stroke="#594FF4" stroke-width="8.16964" stroke-linecap="round" stroke-linejoin="round"/>
<path d="M317.154 194.475L313.518 207.021H311.682L308.766 196.923L305.742 207.021L303.924 207.039L300.414 194.475H302.16L304.896 205.113L307.92 194.475H309.756L312.636 205.077L315.39 194.475H317.154ZM322.529 207.183C321.605 207.183 320.765 206.973 320.009 206.553C319.265 206.133 318.677 205.539 318.245 204.771C317.825 203.991 317.615 203.091 317.615 202.071C317.615 201.063 317.831 200.175 318.263 199.407C318.707 198.627 319.307 198.033 320.063 197.625C320.819 197.205 321.665 196.995 322.601 196.995C323.537 196.995 324.383 197.205 325.139 197.625C325.895 198.033 326.489 198.621 326.921 199.389C327.365 200.157 327.587 201.051 327.587 202.071C327.587 203.091 327.359 203.991 326.903 204.771C326.459 205.539 325.853 206.133 325.085 206.553C324.317 206.973 323.465 207.183 322.529 207.183ZM322.529 205.743C323.117 205.743 323.669 205.605 324.185 205.329C324.701 205.053 325.115 204.639 325.427 204.087C325.751 203.535 325.913 202.863 325.913 202.071C325.913 201.279 325.757 200.607 325.445 200.055C325.133 199.503 324.725 199.095 324.221 198.831C323.717 198.555 323.171 198.417 322.583 198.417C321.983 198.417 321.431 198.555 320.927 198.831C320.435 199.095 320.039 199.503 319.739 200.055C319.439 200.607 319.289 201.279 319.289 202.071C319.289 202.875 319.433 203.553 319.721 204.105C320.021 204.657 320.417 205.071 320.909 205.347C321.401 205.611 321.941 205.743 322.529 205.743ZM342.16 197.157L339.082 207.021H337.39L335.014 199.191L332.638 207.021H330.946L327.85 197.157H329.524L331.792 205.437L334.24 197.157H335.914L338.308 205.455L340.54 197.157H342.16Z" fill="black"/>
</g>
</g>
<defs>
<filter id="filter0_d_373_275" x="-54.5714" y="2.28572" width="475.143" height="441.143" filterUnits="userSpaceOnUse" color-interpolation-filters="sRGB">
<feFlood flood-opacity="0" result="BackgroundImageFix"/>
<feColorMatrix in="SourceAlpha" type="matrix" values="0 0 0 0 0 0 0 0 0 0 0 0 0 0 0 0 0 0 127 0" result="hardAlpha"/>
<feOffset dy="2.85714"/>
<feGaussianBlur stdDeviation="44.2857"/>
<feComposite in2="hardAlpha" operator="out"/>
<feColorMatrix type="matrix" values="0 0 0 0 0 0 0 0 0 0 0 0 0 0 0 0 0 0 0.1 0"/>
<feBlend mode="normal" in2="BackgroundImageFix" result="effect1_dropShadow_373_275"/>
<feBlend mode="normal" in="SourceGraphic" in2="effect1_dropShadow_373_275" result="shape"/>
</filter>
<filter id="filter1_d_373_275" x="22.0998" y="201.28" width="322.621" height="142.614" filterUnits="userSpaceOnUse" color-interpolation-filters="sRGB">
<feFlood flood-opacity="0" result="BackgroundImageFix"/>
<feColorMatrix in="SourceAlpha" type="matrix" values="0 0 0 0 0 0 0 0 0 0 0 0 0 0 0 0 0 0 127 0" result="hardAlpha"/>
<feOffset dy="6.77708"/>
<feGaussianBlur stdDeviation="5.92994"/>
<feColorMatrix type="matrix" values="0 0 0 0 0.317647 0 0 0 0 0.270588 0 0 0 0 0.619608 0 0 0 0.5 0"/>
<feBlend mode="normal" in2="BackgroundImageFix" result="effect1_dropShadow_373_275"/>
<feBlend mode="normal" in="SourceGraphic" in2="effect1_dropShadow_373_275" result="shape"/>
</filter>
<linearGradient id="paint0_linear_373_275" x1="183.5" y1="208" x2="183.5" y2="351" gradientUnits="userSpaceOnUse">
<stop stop-color="#594FF4"/>
<stop offset="1" stop-color="#FCFDFF" stop-opacity="0.5"/>
</linearGradient>
<clipPath id="clip0_373_275">
<rect width="410" height="410" fill="white"/>
</clipPath>
<clipPath id="clip1_373_275">
<rect width="103" height="131" fill="white" transform="translate(273 142)"/>
</clipPath>
</defs>
</svg>
