<svg width="1290" height="600" viewBox="0 0 1290 600" fill="none" xmlns="http://www.w3.org/2000/svg">
<g clip-path="url(#clip0_373_274)">
<rect width="1290" height="600" rx="30" fill="#E9E8FF"/>
<g filter="url(#filter0_dddddd_373_274)">
<g clip-path="url(#clip1_373_274)">
<rect x="90" y="34" width="838" height="533" rx="20.1183" fill="white"/>
<rect x="61.9999" y="16" width="1244" height="125" fill="#070E27"/>
<circle cx="157.648" cy="89.5769" r="11.3166" fill="#ED6B60"/>
<circle cx="191.598" cy="89.577" r="11.3166" fill="#EDBE5C"/>
<circle cx="225.547" cy="89.577" r="11.3166" fill="#64C358"/>
</g>
</g>
<path opacity="0.1" d="M157.333 458.438C134.371 461.213 139.227 463.454 125 468.972V512H901V352.597C901 352.597 879.612 388.738 862.847 387.209C836.893 384.84 848.18 366.783 822.107 368.147C802.72 369.162 799.473 417.016 771.667 415.801C736.54 414.265 750.337 390.474 715.407 387.209C690.877 384.915 691.606 350.084 666.907 349.587C628.75 348.82 623.381 320.342 590.6 317.986C513.236 312.424 585.797 239.455 508.247 243.135C432.57 246.726 515.333 374.268 439.927 368.147C420.936 366.606 412.929 353.079 394.013 355.105C370.653 357.607 372.582 381.835 350.04 387.209C320.574 394.233 305.154 363.084 275.027 368.147C246.166 372.997 247.65 406.708 218.12 406.771C178.353 406.857 196.627 453.689 157.333 458.438Z" fill="url(#paint0_linear_373_274)"/>
<path d="M125 470C139.227 464.482 134.371 462.241 157.333 459.466C196.627 454.717 178.353 407.885 218.12 407.799C247.65 407.736 246.166 374.025 275.027 369.175C305.154 364.111 320.574 395.261 350.04 388.236C372.582 382.862 370.653 358.635 394.013 356.133C412.929 354.107 420.936 367.633 439.927 369.175C515.333 375.295 433.759 247.726 509.435 244.135C586.985 240.454 513.236 313.452 590.6 319.013C623.381 321.369 628.75 349.847 666.907 350.615C691.606 351.112 690.877 385.943 715.407 388.236C750.337 391.501 736.54 415.293 771.667 416.828C799.473 418.044 802.72 370.189 822.107 369.175C848.18 367.81 836.893 385.868 862.847 388.236C879.611 389.766 901 353.625 901 353.625" stroke="#594FF4" stroke-width="3" stroke-linecap="round"/>
<circle cx="555" cy="341" r="11.5" fill="#594FF4" stroke="white" stroke-width="7"/>
<path d="M132.693 516.636V522.816C132.693 523.504 132.481 524.056 132.057 524.472C131.633 524.88 131.073 525.084 130.377 525.084C129.673 525.084 129.109 524.876 128.685 524.46C128.261 524.036 128.049 523.46 128.049 522.732H129.141C129.149 523.14 129.253 523.472 129.453 523.728C129.661 523.984 129.969 524.112 130.377 524.112C130.785 524.112 131.089 523.992 131.289 523.752C131.489 523.504 131.589 523.192 131.589 522.816V516.636H132.693ZM139.788 523.14H136.14L135.468 525H134.316L137.34 516.684H138.6L141.612 525H140.46L139.788 523.14ZM139.476 522.252L137.964 518.028L136.452 522.252H139.476ZM149.506 525H148.414L144.022 518.34V525H142.93V516.624H144.022L148.414 523.272V516.624H149.506V525Z" fill="#14171F" fill-opacity="0.6"/>
<path d="M641.077 516.66V525H639.709V519.288L637.165 525H636.217L633.661 519.288V525H632.293V516.66H633.769L636.697 523.2L639.613 516.66H641.077ZM647.903 523.296H644.411L643.811 525H642.383L645.371 516.648H646.955L649.943 525H648.503L647.903 523.296ZM647.519 522.18L646.163 518.304L644.795 522.18H647.519ZM657.422 516.66L654.662 521.976V525H653.294V521.976L650.522 516.66H652.046L653.978 520.752L655.91 516.66H657.422Z" fill="#070E27"/>
<path d="M259.373 516.636V517.524H255.737V520.344H258.689V521.232H255.737V525H254.645V516.636H259.373ZM261.784 517.524V520.32H264.832V521.22H261.784V524.1H265.192V525H260.692V516.624H265.192V517.524H261.784ZM271.032 520.692C271.336 520.74 271.612 520.864 271.86 521.064C272.116 521.264 272.316 521.512 272.46 521.808C272.612 522.104 272.688 522.42 272.688 522.756C272.688 523.18 272.58 523.564 272.364 523.908C272.148 524.244 271.832 524.512 271.416 524.712C271.008 524.904 270.524 525 269.964 525H266.844V516.636H269.844C270.412 516.636 270.896 516.732 271.296 516.924C271.696 517.108 271.996 517.36 272.196 517.68C272.396 518 272.496 518.36 272.496 518.76C272.496 519.256 272.36 519.668 272.088 519.996C271.824 520.316 271.472 520.548 271.032 520.692ZM267.936 520.248H269.772C270.284 520.248 270.68 520.128 270.96 519.888C271.24 519.648 271.38 519.316 271.38 518.892C271.38 518.468 271.24 518.136 270.96 517.896C270.68 517.656 270.276 517.536 269.748 517.536H267.936V520.248ZM269.868 524.1C270.412 524.1 270.836 523.972 271.14 523.716C271.444 523.46 271.596 523.104 271.596 522.648C271.596 522.184 271.436 521.82 271.116 521.556C270.796 521.284 270.368 521.148 269.832 521.148H267.936V524.1H269.868Z" fill="#14171F" fill-opacity="0.6"/>
<path d="M388.047 516.696V525H386.955V518.808L384.195 525H383.427L380.655 518.796V525H379.563V516.696H380.739L383.811 523.56L386.883 516.696H388.047ZM394.843 523.14H391.195L390.523 525H389.371L392.395 516.684H393.655L396.667 525H395.515L394.843 523.14ZM394.531 522.252L393.019 518.028L391.507 522.252H394.531ZM402.389 525L400.397 521.58H399.077V525H397.985V516.636H400.685C401.317 516.636 401.849 516.744 402.281 516.96C402.721 517.176 403.049 517.468 403.265 517.836C403.481 518.204 403.589 518.624 403.589 519.096C403.589 519.672 403.421 520.18 403.085 520.62C402.757 521.06 402.261 521.352 401.597 521.496L403.697 525H402.389ZM399.077 520.704H400.685C401.277 520.704 401.721 520.56 402.017 520.272C402.313 519.976 402.461 519.584 402.461 519.096C402.461 518.6 402.313 518.216 402.017 517.944C401.729 517.672 401.285 517.536 400.685 517.536H399.077V520.704Z" fill="#14171F" fill-opacity="0.6"/>
<path d="M764.187 516.636V522.816C764.187 523.504 763.975 524.056 763.551 524.472C763.127 524.88 762.567 525.084 761.871 525.084C761.167 525.084 760.603 524.876 760.179 524.46C759.755 524.036 759.543 523.46 759.543 522.732H760.635C760.643 523.14 760.747 523.472 760.947 523.728C761.155 523.984 761.463 524.112 761.871 524.112C762.279 524.112 762.583 523.992 762.783 523.752C762.983 523.504 763.083 523.192 763.083 522.816V516.636H764.187ZM767.406 516.636V521.928C767.406 522.672 767.586 523.224 767.946 523.584C768.314 523.944 768.822 524.124 769.47 524.124C770.11 524.124 770.61 523.944 770.97 523.584C771.338 523.224 771.522 522.672 771.522 521.928V516.636H772.614V521.916C772.614 522.612 772.474 523.2 772.194 523.68C771.914 524.152 771.534 524.504 771.054 524.736C770.582 524.968 770.05 525.084 769.458 525.084C768.866 525.084 768.33 524.968 767.85 524.736C767.378 524.504 767.002 524.152 766.722 523.68C766.45 523.2 766.314 522.612 766.314 521.916V516.636H767.406ZM781.012 525H779.92L775.528 518.34V525H774.436V516.624H775.528L779.92 523.272V516.624H781.012V525Z" fill="#14171F" fill-opacity="0.6"/>
<path d="M513.7 523.14H510.052L509.38 525H508.228L511.252 516.684H512.512L515.524 525H514.372L513.7 523.14ZM513.388 522.252L511.876 518.028L510.364 522.252H513.388ZM522.434 519.084C522.434 519.78 522.194 520.36 521.714 520.824C521.242 521.28 520.518 521.508 519.542 521.508H517.934V525H516.842V516.636H519.542C520.486 516.636 521.202 516.864 521.69 517.32C522.186 517.776 522.434 518.364 522.434 519.084ZM519.542 520.608C520.15 520.608 520.598 520.476 520.886 520.212C521.174 519.948 521.318 519.572 521.318 519.084C521.318 518.052 520.726 517.536 519.542 517.536H517.934V520.608H519.542ZM528.195 525L526.203 521.58H524.883V525H523.791V516.636H526.491C527.123 516.636 527.655 516.744 528.087 516.96C528.527 517.176 528.855 517.468 529.071 517.836C529.287 518.204 529.395 518.624 529.395 519.096C529.395 519.672 529.227 520.18 528.891 520.62C528.563 521.06 528.067 521.352 527.403 521.496L529.503 525H528.195ZM524.883 520.704H526.491C527.083 520.704 527.527 520.56 527.823 520.272C528.119 519.976 528.267 519.584 528.267 519.096C528.267 518.6 528.119 518.216 527.823 517.944C527.535 517.672 527.091 517.536 526.491 517.536H524.883V520.704Z" fill="#14171F" fill-opacity="0.6"/>
<path d="M891.316 516.636V522.816C891.316 523.504 891.104 524.056 890.68 524.472C890.256 524.88 889.696 525.084 889 525.084C888.296 525.084 887.732 524.876 887.308 524.46C886.884 524.036 886.672 523.46 886.672 522.732H887.764C887.772 523.14 887.876 523.472 888.076 523.728C888.284 523.984 888.592 524.112 889 524.112C889.408 524.112 889.712 523.992 889.912 523.752C890.112 523.504 890.212 523.192 890.212 522.816V516.636H891.316ZM894.535 516.636V521.928C894.535 522.672 894.715 523.224 895.075 523.584C895.443 523.944 895.951 524.124 896.599 524.124C897.239 524.124 897.739 523.944 898.099 523.584C898.467 523.224 898.651 522.672 898.651 521.928V516.636H899.743V521.916C899.743 522.612 899.603 523.2 899.323 523.68C899.043 524.152 898.663 524.504 898.183 524.736C897.711 524.968 897.179 525.084 896.587 525.084C895.995 525.084 895.459 524.968 894.979 524.736C894.507 524.504 894.131 524.152 893.851 523.68C893.579 523.2 893.443 522.612 893.443 521.916V516.636H894.535ZM902.657 524.112H905.585V525H901.565V516.636H902.657V524.112Z" fill="#14171F" fill-opacity="0.6"/>
<g filter="url(#filter1_d_373_274)">
<path fill-rule="evenodd" clip-rule="evenodd" d="M536 261C529.373 261 524 266.373 524 273V303C524 309.627 529.373 315 536 315H545.407L552.657 324.069C553.858 325.571 556.142 325.571 557.343 324.069L564.593 315H616C622.627 315 628 309.627 628 303V273C628 266.373 622.627 261 616 261H536Z" fill="white"/>
</g>
<path d="M550.264 296.784C551.064 296.784 551.752 296.608 552.328 296.256C552.915 295.904 553.363 295.403 553.672 294.752H555.4C554.995 295.819 554.339 296.645 553.432 297.232C552.525 297.808 551.469 298.096 550.264 298.096C549.005 298.096 547.896 297.749 546.936 297.056C545.976 296.363 545.315 295.435 544.952 294.272H543.4V293.248H544.728C544.696 292.971 544.68 292.693 544.68 292.416C544.68 292.149 544.696 291.888 544.728 291.632H543.4V290.624H544.936C545.171 289.845 545.544 289.163 546.056 288.576C546.579 287.979 547.197 287.52 547.912 287.2C548.637 286.869 549.421 286.704 550.264 286.704C551.469 286.704 552.525 286.997 553.432 287.584C554.339 288.171 554.995 289.003 555.4 290.08H553.672C553.363 289.419 552.92 288.912 552.344 288.56C551.768 288.208 551.075 288.032 550.264 288.032C549.368 288.032 548.584 288.261 547.912 288.72C547.251 289.179 546.776 289.813 546.488 290.624H550.264V291.632H546.232C546.2 291.888 546.184 292.149 546.184 292.416C546.184 292.725 546.205 293.003 546.248 293.248H550.264V294.272H546.504C546.813 295.061 547.299 295.68 547.96 296.128C548.632 296.565 549.4 296.784 550.264 296.784ZM556.577 287.76V286.432H559.585V298H558.113V287.76H556.577ZM563.83 295.984L562.038 300.288H561.062L562.23 295.984H563.83ZM567.13 294.896C567.236 295.504 567.482 295.973 567.866 296.304C568.26 296.635 568.788 296.8 569.45 296.8C570.335 296.8 570.986 296.453 571.402 295.76C571.828 295.067 572.031 293.899 572.01 292.256C571.786 292.736 571.412 293.115 570.89 293.392C570.367 293.659 569.786 293.792 569.146 293.792C568.431 293.792 567.791 293.648 567.226 293.36C566.671 293.061 566.234 292.629 565.914 292.064C565.594 291.499 565.434 290.816 565.434 290.016C565.434 288.875 565.764 287.957 566.426 287.264C567.087 286.56 568.026 286.208 569.242 286.208C570.735 286.208 571.78 286.693 572.378 287.664C572.986 288.635 573.29 290.08 573.29 292C573.29 293.344 573.167 294.453 572.922 295.328C572.687 296.203 572.282 296.869 571.706 297.328C571.14 297.787 570.362 298.016 569.37 298.016C568.282 298.016 567.434 297.723 566.826 297.136C566.218 296.549 565.871 295.803 565.786 294.896H567.13ZM569.386 292.56C570.1 292.56 570.687 292.341 571.146 291.904C571.604 291.456 571.834 290.853 571.834 290.096C571.834 289.296 571.61 288.651 571.162 288.16C570.714 287.669 570.084 287.424 569.274 287.424C568.527 287.424 567.93 287.659 567.482 288.128C567.044 288.597 566.826 289.216 566.826 289.984C566.826 290.763 567.044 291.387 567.482 291.856C567.919 292.325 568.554 292.56 569.386 292.56ZM582.712 287.696H577.096V291.344C577.341 291.003 577.704 290.725 578.184 290.512C578.664 290.288 579.181 290.176 579.736 290.176C580.621 290.176 581.341 290.363 581.896 290.736C582.45 291.099 582.845 291.573 583.08 292.16C583.325 292.736 583.448 293.349 583.448 294C583.448 294.768 583.304 295.456 583.016 296.064C582.728 296.672 582.285 297.152 581.688 297.504C581.101 297.856 580.37 298.032 579.496 298.032C578.376 298.032 577.469 297.744 576.776 297.168C576.082 296.592 575.661 295.824 575.512 294.864H576.936C577.074 295.472 577.368 295.947 577.816 296.288C578.264 296.629 578.829 296.8 579.512 296.8C580.354 296.8 580.989 296.549 581.416 296.048C581.842 295.536 582.056 294.864 582.056 294.032C582.056 293.2 581.842 292.56 581.416 292.112C580.989 291.653 580.36 291.424 579.528 291.424C578.962 291.424 578.466 291.563 578.04 291.84C577.624 292.107 577.32 292.475 577.128 292.944H575.752V286.416H582.712V287.696ZM585.207 296.832C586.561 295.744 587.623 294.853 588.391 294.16C589.159 293.456 589.804 292.725 590.327 291.968C590.86 291.2 591.127 290.448 591.127 289.712C591.127 289.019 590.956 288.475 590.615 288.08C590.284 287.675 589.745 287.472 588.999 287.472C588.273 287.472 587.708 287.701 587.303 288.16C586.908 288.608 586.695 289.211 586.663 289.968H585.255C585.297 288.773 585.66 287.851 586.343 287.2C587.025 286.549 587.905 286.224 588.983 286.224C590.081 286.224 590.951 286.528 591.591 287.136C592.241 287.744 592.567 288.581 592.567 289.648C592.567 290.533 592.3 291.397 591.767 292.24C591.244 293.072 590.647 293.808 589.975 294.448C589.303 295.077 588.444 295.813 587.399 296.656H592.903V297.872H585.207V296.832ZM595.29 298.096C595.012 298.096 594.778 298 594.586 297.808C594.394 297.616 594.298 297.381 594.298 297.104C594.298 296.827 594.394 296.592 594.586 296.4C594.778 296.208 595.012 296.112 595.29 296.112C595.556 296.112 595.78 296.208 595.962 296.4C596.154 296.592 596.25 296.827 596.25 297.104C596.25 297.381 596.154 297.616 595.962 297.808C595.78 298 595.556 298.096 595.29 298.096ZM600.057 291.984C599.46 291.749 599.001 291.408 598.681 290.96C598.361 290.512 598.201 289.968 598.201 289.328C598.201 288.752 598.345 288.235 598.633 287.776C598.921 287.307 599.348 286.939 599.913 286.672C600.489 286.395 601.182 286.256 601.993 286.256C602.804 286.256 603.492 286.395 604.057 286.672C604.633 286.939 605.065 287.307 605.353 287.776C605.652 288.235 605.801 288.752 605.801 289.328C605.801 289.947 605.636 290.491 605.305 290.96C604.974 291.419 604.521 291.76 603.945 291.984C604.606 292.187 605.129 292.544 605.513 293.056C605.908 293.557 606.105 294.165 606.105 294.88C606.105 295.573 605.934 296.181 605.593 296.704C605.252 297.216 604.766 297.616 604.137 297.904C603.518 298.181 602.804 298.32 601.993 298.32C601.182 298.32 600.468 298.181 599.849 297.904C599.241 297.616 598.766 297.216 598.425 296.704C598.084 296.181 597.913 295.573 597.913 294.88C597.913 294.165 598.105 293.552 598.489 293.04C598.873 292.528 599.396 292.176 600.057 291.984ZM604.393 289.504C604.393 288.853 604.18 288.352 603.753 288C603.326 287.648 602.74 287.472 601.993 287.472C601.257 287.472 600.676 287.648 600.249 288C599.822 288.352 599.609 288.859 599.609 289.52C599.609 290.117 599.828 290.597 600.265 290.96C600.713 291.323 601.289 291.504 601.993 291.504C602.708 291.504 603.284 291.323 603.721 290.96C604.169 290.587 604.393 290.101 604.393 289.504ZM601.993 292.624C601.204 292.624 600.558 292.811 600.057 293.184C599.556 293.547 599.305 294.096 599.305 294.832C599.305 295.515 599.545 296.064 600.025 296.48C600.516 296.896 601.172 297.104 601.993 297.104C602.814 297.104 603.465 296.896 603.945 296.48C604.425 296.064 604.665 295.515 604.665 294.832C604.665 294.117 604.42 293.573 603.929 293.2C603.438 292.816 602.793 292.624 601.993 292.624ZM608.039 292.096C608.039 290.261 608.338 288.832 608.935 287.808C609.532 286.773 610.578 286.256 612.071 286.256C613.554 286.256 614.594 286.773 615.191 287.808C615.788 288.832 616.087 290.261 616.087 292.096C616.087 293.963 615.788 295.413 615.191 296.448C614.594 297.483 613.554 298 612.071 298C610.578 298 609.532 297.483 608.935 296.448C608.338 295.413 608.039 293.963 608.039 292.096ZM614.647 292.096C614.647 291.168 614.583 290.384 614.455 289.744C614.338 289.093 614.087 288.571 613.703 288.176C613.33 287.781 612.786 287.584 612.071 287.584C611.346 287.584 610.791 287.781 610.407 288.176C610.034 288.571 609.783 289.093 609.655 289.744C609.538 290.384 609.479 291.168 609.479 292.096C609.479 293.056 609.538 293.861 609.655 294.512C609.783 295.163 610.034 295.685 610.407 296.08C610.791 296.475 611.346 296.672 612.071 296.672C612.786 296.672 613.33 296.475 613.703 296.08C614.087 295.685 614.338 295.163 614.455 294.512C614.583 293.861 614.647 293.056 614.647 292.096Z" fill="black"/>
<g filter="url(#filter2_d_373_274)">
<rect x="765" y="193" width="435" height="369" rx="24.0879" fill="white"/>
<path d="M765 217.088C765 203.785 775.785 193 789.088 193H1175.91C1189.22 193 1200 203.785 1200 217.088V255H765V217.088Z" fill="#594FF4"/>
<rect x="789" y="403.536" width="384.426" height="15.5843" rx="7.79217" transform="rotate(-0.0799219 789 403.536)" fill="#24160B" fill-opacity="0.04"/>
<rect x="789" y="362.536" width="384.426" height="15.5843" rx="7.79217" transform="rotate(-0.0799219 789 362.536)" fill="#24160B" fill-opacity="0.04"/>
<rect x="809" y="310.426" width="305.046" height="15.5843" rx="7.79217" transform="rotate(-0.0799219 809 310.426)" fill="#B8B8B8"/>
<rect x="789" y="447.432" width="363.547" height="15.5843" rx="7.79217" transform="rotate(-0.0799219 789 447.432)" fill="#24160B" fill-opacity="0.04"/>
<rect x="789" y="508.507" width="363.547" height="15.5843" rx="7.79217" transform="rotate(-0.0799219 789 508.507)" fill="#24160B" fill-opacity="0.04"/>
<circle cx="791.922" cy="221.339" r="8.50163" fill="#ED6B60"/>
<circle cx="817.427" cy="221.339" r="8.50163" fill="#EDBE5C"/>
<circle cx="842.932" cy="221.339" r="8.50163" fill="#64C358"/>
<g clip-path="url(#clip2_373_274)">
<path d="M1141.58 325.5C1145.96 325.5 1149.5 321.956 1149.5 317.583C1149.5 313.211 1145.96 309.667 1141.58 309.667C1137.21 309.667 1133.67 313.211 1133.67 317.583C1133.67 321.956 1137.21 325.5 1141.58 325.5Z" stroke="#3F5467" stroke-width="1.5" stroke-linecap="round" stroke-linejoin="round"/>
<path d="M1150.33 326.333L1148.67 324.667" stroke="#3F5467" stroke-width="1.5" stroke-linecap="round" stroke-linejoin="round"/>
</g>
<rect x="792.5" y="292.5" width="380" height="49" rx="19.5" stroke="#D7DFE2"/>
</g>
</g>
<defs>
<filter id="filter0_dddddd_373_274" x="-202.195" y="29.2654" width="1422.39" height="1195.17" filterUnits="userSpaceOnUse" color-interpolation-filters="sRGB">
<feFlood flood-opacity="0" result="BackgroundImageFix"/>
<feColorMatrix in="SourceAlpha" type="matrix" values="0 0 0 0 0 0 0 0 0 0 0 0 0 0 0 0 0 0 127 0" result="hardAlpha"/>
<feOffset dy="6.76377"/>
<feGaussianBlur stdDeviation="5.74921"/>
<feColorMatrix type="matrix" values="0 0 0 0 0 0 0 0 0 0 0 0 0 0 0 0 0 0 0.01 0"/>
<feBlend mode="normal" in2="BackgroundImageFix" result="effect1_dropShadow_373_274"/>
<feColorMatrix in="SourceAlpha" type="matrix" values="0 0 0 0 0 0 0 0 0 0 0 0 0 0 0 0 0 0 127 0" result="hardAlpha"/>
<feOffset dy="29.7606"/>
<feGaussianBlur stdDeviation="11.9042"/>
<feColorMatrix type="matrix" values="0 0 0 0 0 0 0 0 0 0 0 0 0 0 0 0 0 0 0.0117778 0"/>
<feBlend mode="normal" in2="effect1_dropShadow_373_274" result="effect2_dropShadow_373_274"/>
<feColorMatrix in="SourceAlpha" type="matrix" values="0 0 0 0 0 0 0 0 0 0 0 0 0 0 0 0 0 0 127 0" result="hardAlpha"/>
<feOffset dy="73.0488"/>
<feGaussianBlur stdDeviation="23.7408"/>
<feColorMatrix type="matrix" values="0 0 0 0 0 0 0 0 0 0 0 0 0 0 0 0 0 0 0.015 0"/>
<feBlend mode="normal" in2="effect2_dropShadow_373_274" result="effect3_dropShadow_373_274"/>
<feColorMatrix in="SourceAlpha" type="matrix" values="0 0 0 0 0 0 0 0 0 0 0 0 0 0 0 0 0 0 127 0" result="hardAlpha"/>
<feOffset dy="140.686"/>
<feGaussianBlur stdDeviation="46.5348"/>
<feColorMatrix type="matrix" values="0 0 0 0 0 0 0 0 0 0 0 0 0 0 0 0 0 0 0.0182222 0"/>
<feBlend mode="normal" in2="effect3_dropShadow_373_274" result="effect4_dropShadow_373_274"/>
<feColorMatrix in="SourceAlpha" type="matrix" values="0 0 0 0 0 0 0 0 0 0 0 0 0 0 0 0 0 0 127 0" result="hardAlpha"/>
<feOffset dy="236.732"/>
<feGaussianBlur stdDeviation="85.5617"/>
<feColorMatrix type="matrix" values="0 0 0 0 0 0 0 0 0 0 0 0 0 0 0 0 0 0 0.0227778 0"/>
<feBlend mode="normal" in2="effect4_dropShadow_373_274" result="effect5_dropShadow_373_274"/>
<feColorMatrix in="SourceAlpha" type="matrix" values="0 0 0 0 0 0 0 0 0 0 0 0 0 0 0 0 0 0 127 0" result="hardAlpha"/>
<feOffset dy="365.244"/>
<feGaussianBlur stdDeviation="146.098"/>
<feColorMatrix type="matrix" values="0 0 0 0 0 0 0 0 0 0 0 0 0 0 0 0 0 0 0.03 0"/>
<feBlend mode="normal" in2="effect5_dropShadow_373_274" result="effect6_dropShadow_373_274"/>
<feBlend mode="normal" in="SourceGraphic" in2="effect6_dropShadow_373_274" result="shape"/>
</filter>
<filter id="filter1_d_373_274" x="504" y="251" width="144" height="104.195" filterUnits="userSpaceOnUse" color-interpolation-filters="sRGB">
<feFlood flood-opacity="0" result="BackgroundImageFix"/>
<feColorMatrix in="SourceAlpha" type="matrix" values="0 0 0 0 0 0 0 0 0 0 0 0 0 0 0 0 0 0 127 0" result="hardAlpha"/>
<feOffset dy="10"/>
<feGaussianBlur stdDeviation="10"/>
<feColorMatrix type="matrix" values="0 0 0 0 0.984314 0 0 0 0 0.8 0 0 0 0 0.392157 0 0 0 0.2 0"/>
<feBlend mode="normal" in2="BackgroundImageFix" result="effect1_dropShadow_373_274"/>
<feBlend mode="normal" in="SourceGraphic" in2="effect1_dropShadow_373_274" result="shape"/>
</filter>
<filter id="filter2_d_373_274" x="641" y="73" width="683" height="617" filterUnits="userSpaceOnUse" color-interpolation-filters="sRGB">
<feFlood flood-opacity="0" result="BackgroundImageFix"/>
<feColorMatrix in="SourceAlpha" type="matrix" values="0 0 0 0 0 0 0 0 0 0 0 0 0 0 0 0 0 0 127 0" result="hardAlpha"/>
<feOffset dy="4"/>
<feGaussianBlur stdDeviation="62"/>
<feComposite in2="hardAlpha" operator="out"/>
<feColorMatrix type="matrix" values="0 0 0 0 0 0 0 0 0 0 0 0 0 0 0 0 0 0 0.1 0"/>
<feBlend mode="normal" in2="BackgroundImageFix" result="effect1_dropShadow_373_274"/>
<feBlend mode="normal" in="SourceGraphic" in2="effect1_dropShadow_373_274" result="shape"/>
</filter>
<linearGradient id="paint0_linear_373_274" x1="513" y1="226.581" x2="513" y2="616.948" gradientUnits="userSpaceOnUse">
<stop stop-color="#0067FB"/>
<stop offset="0.737582" stop-color="#0067FB" stop-opacity="0"/>
</linearGradient>
<clipPath id="clip0_373_274">
<rect width="1290" height="600" fill="white"/>
</clipPath>
<clipPath id="clip1_373_274">
<rect x="90" y="34" width="838" height="533" rx="20.1183" fill="white"/>
</clipPath>
<clipPath id="clip2_373_274">
<rect width="20" height="20" fill="white" transform="translate(1132 308)"/>
</clipPath>
</defs>
</svg>
