<svg width="24" height="24" viewBox="0 0 24 24" fill="none" xmlns="http://www.w3.org/2000/svg">
<path fill-rule="evenodd" clip-rule="evenodd" d="M3 4.91062C3 4.36821 3.44772 3.9285 4 3.9285L20 3.9285C20.5523 3.9285 21 4.36821 21 4.91062C21 5.45303 20.5523 5.89275 20 5.89275L4 5.89274C3.44772 5.89274 3 5.45303 3 4.91062Z" fill="black"/>
<path fill-rule="evenodd" clip-rule="evenodd" d="M11.5 12.7676L20 12.7676C20.5523 12.7676 21 12.3279 21 11.7855C21 11.2431 20.5523 10.8034 20 10.8034L4 10.8034C3.44772 10.8034 3 11.2431 3 11.7855C3 12.3279 3.44771 12.7676 4 12.7676L7.5 12.7676L8.7 14.339C8.88885 14.5863 9.18524 14.7319 9.5 14.7319C9.81476 14.7319 10.1111 14.5863 10.3 14.339L11.5 12.7676Z" fill="black"/>
<path fill-rule="evenodd" clip-rule="evenodd" d="M3 18.6603C3 18.1179 3.44772 17.6782 4 17.6782L20 17.6782C20.5523 17.6782 21 18.1179 21 18.6603C21 19.2028 20.5523 19.6425 20 19.6425L4 19.6425C3.44772 19.6425 3 19.2028 3 18.6603Z" fill="black"/>
</svg>
