<svg width="1290" height="600" viewBox="0 0 1290 600" fill="none" xmlns="http://www.w3.org/2000/svg">
<g clip-path="url(#clip0_371_167)">
<rect width="1290" height="600" rx="30" fill="#E9E8FF"/>
<g filter="url(#filter0_dddddd_371_167)">
<g clip-path="url(#clip1_371_167)">
<rect x="34" y="29" width="1216" height="533" rx="20.1183" fill="white"/>
<path d="M84.4182 192.524C85.8262 191.351 86.9482 190.375 87.7842 189.598C88.6202 188.806 89.3168 187.985 89.8742 187.134C90.4315 186.283 90.7102 185.447 90.7102 184.626C90.7102 183.878 90.5342 183.291 90.1822 182.866C89.8302 182.441 89.2875 182.228 88.5542 182.228C87.8208 182.228 87.2562 182.477 86.8602 182.976C86.4642 183.46 86.2588 184.127 86.2442 184.978H83.2522C83.3108 183.218 83.8315 181.883 84.8142 180.974C85.8115 180.065 87.0728 179.61 88.5982 179.61C90.2702 179.61 91.5535 180.057 92.4482 180.952C93.3428 181.832 93.7902 182.998 93.7902 184.45C93.7902 185.594 93.4822 186.687 92.8662 187.728C92.2502 188.769 91.5462 189.679 90.7542 190.456C89.9622 191.219 88.9282 192.143 87.6522 193.228H94.1422V195.78H83.2742V193.492L84.4182 192.524ZM106.423 182.624H99.295V186.386C99.603 186.005 100.043 185.697 100.615 185.462C101.187 185.213 101.796 185.088 102.441 185.088C103.614 185.088 104.575 185.345 105.323 185.858C106.071 186.371 106.614 187.031 106.951 187.838C107.288 188.63 107.457 189.481 107.457 190.39C107.457 192.077 106.973 193.433 106.005 194.46C105.052 195.487 103.688 196 101.913 196C100.241 196 98.9063 195.582 97.909 194.746C96.9117 193.91 96.347 192.817 96.215 191.468H99.207C99.339 192.055 99.6323 192.524 100.087 192.876C100.556 193.228 101.15 193.404 101.869 193.404C102.734 193.404 103.387 193.133 103.827 192.59C104.267 192.047 104.487 191.329 104.487 190.434C104.487 189.525 104.26 188.835 103.805 188.366C103.365 187.882 102.712 187.64 101.847 187.64C101.231 187.64 100.718 187.794 100.307 188.102C99.8963 188.41 99.603 188.821 99.427 189.334H96.479V179.918H106.423V182.624Z" fill="#14171F" fill-opacity="0.6"/>
<path d="M84.4182 256.72C85.8262 255.547 86.9482 254.571 87.7842 253.794C88.6202 253.002 89.3168 252.181 89.8742 251.33C90.4315 250.479 90.7102 249.643 90.7102 248.822C90.7102 248.074 90.5342 247.487 90.1822 247.062C89.8302 246.637 89.2875 246.424 88.5542 246.424C87.8208 246.424 87.2562 246.673 86.8602 247.172C86.4642 247.656 86.2588 248.323 86.2442 249.174H83.2522C83.3108 247.414 83.8315 246.079 84.8142 245.17C85.8115 244.261 87.0728 243.806 88.5982 243.806C90.2702 243.806 91.5535 244.253 92.4482 245.148C93.3428 246.028 93.7902 247.194 93.7902 248.646C93.7902 249.79 93.4822 250.883 92.8662 251.924C92.2502 252.965 91.5462 253.875 90.7542 254.652C89.9622 255.415 88.9282 256.339 87.6522 257.424H94.1422V259.976H83.2742V257.688L84.4182 256.72ZM95.643 251.968C95.643 249.431 96.0977 247.443 97.007 246.006C97.931 244.569 99.4563 243.85 101.583 243.85C103.71 243.85 105.228 244.569 106.137 246.006C107.061 247.443 107.523 249.431 107.523 251.968C107.523 254.52 107.061 256.522 106.137 257.974C105.228 259.426 103.71 260.152 101.583 260.152C99.4563 260.152 97.931 259.426 97.007 257.974C96.0977 256.522 95.643 254.52 95.643 251.968ZM104.487 251.968C104.487 250.883 104.414 249.973 104.267 249.24C104.135 248.492 103.856 247.883 103.431 247.414C103.02 246.945 102.404 246.71 101.583 246.71C100.762 246.71 100.138 246.945 99.713 247.414C99.3023 247.883 99.0237 248.492 98.877 249.24C98.745 249.973 98.679 250.883 98.679 251.968C98.679 253.083 98.745 254.021 98.877 254.784C99.009 255.532 99.2877 256.141 99.713 256.61C100.138 257.065 100.762 257.292 101.583 257.292C102.404 257.292 103.028 257.065 103.453 256.61C103.878 256.141 104.157 255.532 104.289 254.784C104.421 254.021 104.487 253.083 104.487 251.968Z" fill="#14171F" fill-opacity="0.6"/>
<path d="M83.0762 311.192V308.354H88.3782V324.392H85.2102V311.192H83.0762ZM101.761 311.016H94.6329V314.778C94.9409 314.397 95.3809 314.089 95.9529 313.854C96.5249 313.605 97.1335 313.48 97.7789 313.48C98.9522 313.48 99.9129 313.737 100.661 314.25C101.409 314.763 101.952 315.423 102.289 316.23C102.626 317.022 102.795 317.873 102.795 318.782C102.795 320.469 102.311 321.825 101.343 322.852C100.39 323.879 99.0255 324.392 97.2509 324.392C95.5789 324.392 94.2442 323.974 93.2469 323.138C92.2495 322.302 91.6849 321.209 91.5529 319.86H94.5449C94.6769 320.447 94.9702 320.916 95.4249 321.268C95.8942 321.62 96.4882 321.796 97.2069 321.796C98.0722 321.796 98.7249 321.525 99.1649 320.982C99.6049 320.439 99.8249 319.721 99.8249 318.826C99.8249 317.917 99.5975 317.227 99.1429 316.758C98.7029 316.274 98.0502 316.032 97.1849 316.032C96.5689 316.032 96.0555 316.186 95.6449 316.494C95.2342 316.802 94.9409 317.213 94.7649 317.726H91.8169V308.31H101.761V311.016Z" fill="#14171F" fill-opacity="0.6"/>
<path d="M83.0762 375.388V372.55H88.3782V388.588H85.2102V375.388H83.0762ZM90.9809 380.36C90.9809 377.823 91.4355 375.835 92.3449 374.398C93.2689 372.961 94.7942 372.242 96.9209 372.242C99.0475 372.242 100.566 372.961 101.475 374.398C102.399 375.835 102.861 377.823 102.861 380.36C102.861 382.912 102.399 384.914 101.475 386.366C100.566 387.818 99.0475 388.544 96.9209 388.544C94.7942 388.544 93.2689 387.818 92.3449 386.366C91.4355 384.914 90.9809 382.912 90.9809 380.36ZM99.8249 380.36C99.8249 379.275 99.7515 378.365 99.6049 377.632C99.4729 376.884 99.1942 376.275 98.7689 375.806C98.3582 375.337 97.7422 375.102 96.9209 375.102C96.0995 375.102 95.4762 375.337 95.0509 375.806C94.6402 376.275 94.3615 376.884 94.2149 377.632C94.0829 378.365 94.0169 379.275 94.0169 380.36C94.0169 381.475 94.0829 382.413 94.2149 383.176C94.3469 383.924 94.6255 384.533 95.0509 385.002C95.4762 385.457 96.0995 385.684 96.9209 385.684C97.7422 385.684 98.3655 385.457 98.7909 385.002C99.2162 384.533 99.4949 383.924 99.6269 383.176C99.7589 382.413 99.8249 381.475 99.8249 380.36Z" fill="#14171F" fill-opacity="0.6"/>
<path d="M94.2302 439.408H87.1022V443.17C87.4102 442.788 87.8502 442.48 88.4222 442.246C88.9942 441.996 89.6028 441.872 90.2482 441.872C91.4215 441.872 92.3822 442.128 93.1302 442.642C93.8782 443.155 94.4208 443.815 94.7582 444.622C95.0955 445.414 95.2642 446.264 95.2642 447.174C95.2642 448.86 94.7802 450.217 93.8122 451.244C92.8588 452.27 91.4948 452.784 89.7202 452.784C88.0482 452.784 86.7135 452.366 85.7162 451.53C84.7188 450.694 84.1542 449.601 84.0222 448.252H87.0142C87.1462 448.838 87.4395 449.308 87.8942 449.66C88.3635 450.012 88.9575 450.188 89.6762 450.188C90.5415 450.188 91.1942 449.916 91.6342 449.374C92.0742 448.831 92.2942 448.112 92.2942 447.218C92.2942 446.308 92.0668 445.619 91.6122 445.15C91.1722 444.666 90.5195 444.424 89.6542 444.424C89.0382 444.424 88.5248 444.578 88.1142 444.886C87.7035 445.194 87.4102 445.604 87.2342 446.118H84.2862V436.702H94.2302V439.408Z" fill="#14171F" fill-opacity="0.6"/>
<path d="M83.4502 508.752C83.4502 506.214 83.9048 504.227 84.8142 502.79C85.7382 501.352 87.2635 500.634 89.3902 500.634C91.5168 500.634 93.0348 501.352 93.9442 502.79C94.8682 504.227 95.3302 506.214 95.3302 508.752C95.3302 511.304 94.8682 513.306 93.9442 514.758C93.0348 516.21 91.5168 516.936 89.3902 516.936C87.2635 516.936 85.7382 516.21 84.8142 514.758C83.9048 513.306 83.4502 511.304 83.4502 508.752ZM92.2942 508.752C92.2942 507.666 92.2208 506.757 92.0742 506.024C91.9422 505.276 91.6635 504.667 91.2382 504.198C90.8275 503.728 90.2115 503.494 89.3902 503.494C88.5688 503.494 87.9455 503.728 87.5202 504.198C87.1095 504.667 86.8308 505.276 86.6842 506.024C86.5522 506.757 86.4862 507.666 86.4862 508.752C86.4862 509.866 86.5522 510.805 86.6842 511.568C86.8162 512.316 87.0948 512.924 87.5202 513.394C87.9455 513.848 88.5688 514.076 89.3902 514.076C90.2115 514.076 90.8348 513.848 91.2602 513.394C91.6855 512.924 91.9642 512.316 92.0962 511.568C92.2282 510.805 92.2942 509.866 92.2942 508.752Z" fill="#14171F" fill-opacity="0.6"/>
<path d="M173 190H1229" stroke="#F0F0F0" stroke-width="2.01183"/>
<path d="M173 243H1229" stroke="#F0F0F0" stroke-width="2.01183"/>
<path d="M173 296H1229" stroke="#F0F0F0" stroke-width="2.01183"/>
<path d="M173 349H1229" stroke="#F0F0F0" stroke-width="2.01183"/>
<path d="M173 402H1229" stroke="#F0F0F0" stroke-width="2.01183"/>
<path d="M173 455H1229" stroke="#F0F0F0" stroke-width="2.01183"/>
<path d="M243.304 493.272V495.048H236.032V500.688H241.936V502.464H236.032V510H233.848V493.272H243.304ZM244.646 503.376C244.646 502.032 244.918 500.856 245.462 499.848C246.006 498.824 246.75 498.032 247.694 497.472C248.654 496.912 249.718 496.632 250.886 496.632C252.038 496.632 253.038 496.88 253.886 497.376C254.734 497.872 255.366 498.496 255.782 499.248V496.848H257.99V510H255.782V507.552C255.35 508.32 254.702 508.96 253.838 509.472C252.99 509.968 251.998 510.216 250.862 510.216C249.694 510.216 248.638 509.928 247.694 509.352C246.75 508.776 246.006 507.968 245.462 506.928C244.918 505.888 244.646 504.704 244.646 503.376ZM255.782 503.4C255.782 502.408 255.582 501.544 255.182 500.808C254.782 500.072 254.238 499.512 253.55 499.128C252.878 498.728 252.134 498.528 251.318 498.528C250.502 498.528 249.758 498.72 249.086 499.104C248.414 499.488 247.878 500.048 247.478 500.784C247.078 501.52 246.878 502.384 246.878 503.376C246.878 504.384 247.078 505.264 247.478 506.016C247.878 506.752 248.414 507.32 249.086 507.72C249.758 508.104 250.502 508.296 251.318 508.296C252.134 508.296 252.878 508.104 253.55 507.72C254.238 507.32 254.782 506.752 255.182 506.016C255.582 505.264 255.782 504.392 255.782 503.4ZM260.385 503.4C260.385 502.04 260.657 500.856 261.201 499.848C261.745 498.824 262.497 498.032 263.457 497.472C264.433 496.912 265.545 496.632 266.793 496.632C268.409 496.632 269.737 497.024 270.777 497.808C271.833 498.592 272.529 499.68 272.865 501.072H270.513C270.289 500.272 269.849 499.64 269.193 499.176C268.553 498.712 267.753 498.48 266.793 498.48C265.545 498.48 264.537 498.912 263.769 499.776C263.001 500.624 262.617 501.832 262.617 503.4C262.617 504.984 263.001 506.208 263.769 507.072C264.537 507.936 265.545 508.368 266.793 508.368C267.753 508.368 268.553 508.144 269.193 507.696C269.833 507.248 270.273 506.608 270.513 505.776H272.865C272.513 507.12 271.809 508.2 270.753 509.016C269.697 509.816 268.377 510.216 266.793 510.216C265.545 510.216 264.433 509.936 263.457 509.376C262.497 508.816 261.745 508.024 261.201 507C260.657 505.976 260.385 504.776 260.385 503.4ZM287.299 502.92C287.299 503.336 287.275 503.776 287.227 504.24H276.715C276.795 505.536 277.235 506.552 278.035 507.288C278.851 508.008 279.835 508.368 280.987 508.368C281.931 508.368 282.715 508.152 283.339 507.72C283.979 507.272 284.427 506.68 284.683 505.944H287.035C286.683 507.208 285.979 508.24 284.923 509.04C283.867 509.824 282.555 510.216 280.987 510.216C279.739 510.216 278.619 509.936 277.627 509.376C276.651 508.816 275.883 508.024 275.323 507C274.763 505.96 274.483 504.76 274.483 503.4C274.483 502.04 274.755 500.848 275.299 499.824C275.843 498.8 276.603 498.016 277.579 497.472C278.571 496.912 279.707 496.632 280.987 496.632C282.235 496.632 283.339 496.904 284.299 497.448C285.259 497.992 285.995 498.744 286.507 499.704C287.035 500.648 287.299 501.72 287.299 502.92ZM285.043 502.464C285.043 501.632 284.859 500.92 284.491 500.328C284.123 499.72 283.619 499.264 282.979 498.96C282.355 498.64 281.659 498.48 280.891 498.48C279.787 498.48 278.843 498.832 278.059 499.536C277.291 500.24 276.851 501.216 276.739 502.464H285.043ZM291.885 499.296C292.333 498.512 292.989 497.872 293.853 497.376C294.717 496.88 295.701 496.632 296.805 496.632C297.989 496.632 299.053 496.912 299.997 497.472C300.941 498.032 301.685 498.824 302.229 499.848C302.773 500.856 303.045 502.032 303.045 503.376C303.045 504.704 302.773 505.888 302.229 506.928C301.685 507.968 300.933 508.776 299.973 509.352C299.029 509.928 297.973 510.216 296.805 510.216C295.669 510.216 294.669 509.968 293.805 509.472C292.957 508.976 292.317 508.344 291.885 507.576V510H289.701V492.24H291.885V499.296ZM300.813 503.376C300.813 502.384 300.613 501.52 300.213 500.784C299.813 500.048 299.269 499.488 298.581 499.104C297.909 498.72 297.165 498.528 296.349 498.528C295.549 498.528 294.805 498.728 294.117 499.128C293.445 499.512 292.901 500.08 292.485 500.832C292.085 501.568 291.885 502.424 291.885 503.4C291.885 504.392 292.085 505.264 292.485 506.016C292.901 506.752 293.445 507.32 294.117 507.72C294.805 508.104 295.549 508.296 296.349 508.296C297.165 508.296 297.909 508.104 298.581 507.72C299.269 507.32 299.813 506.752 300.213 506.016C300.613 505.264 300.813 504.384 300.813 503.376ZM311.176 510.216C309.944 510.216 308.824 509.936 307.816 509.376C306.824 508.816 306.04 508.024 305.464 507C304.904 505.96 304.624 504.76 304.624 503.4C304.624 502.056 304.912 500.872 305.488 499.848C306.08 498.808 306.88 498.016 307.888 497.472C308.896 496.912 310.024 496.632 311.272 496.632C312.52 496.632 313.648 496.912 314.656 497.472C315.664 498.016 316.456 498.8 317.032 499.824C317.624 500.848 317.92 502.04 317.92 503.4C317.92 504.76 317.616 505.96 317.008 507C316.416 508.024 315.608 508.816 314.584 509.376C313.56 509.936 312.424 510.216 311.176 510.216ZM311.176 508.296C311.96 508.296 312.696 508.112 313.384 507.744C314.072 507.376 314.624 506.824 315.04 506.088C315.472 505.352 315.688 504.456 315.688 503.4C315.688 502.344 315.48 501.448 315.064 500.712C314.648 499.976 314.104 499.432 313.432 499.08C312.76 498.712 312.032 498.528 311.248 498.528C310.448 498.528 309.712 498.712 309.04 499.08C308.384 499.432 307.856 499.976 307.456 500.712C307.056 501.448 306.856 502.344 306.856 503.4C306.856 504.472 307.048 505.376 307.432 506.112C307.832 506.848 308.36 507.4 309.016 507.768C309.672 508.12 310.392 508.296 311.176 508.296ZM326.048 510.216C324.816 510.216 323.696 509.936 322.688 509.376C321.696 508.816 320.912 508.024 320.336 507C319.776 505.96 319.496 504.76 319.496 503.4C319.496 502.056 319.784 500.872 320.36 499.848C320.952 498.808 321.752 498.016 322.76 497.472C323.768 496.912 324.896 496.632 326.144 496.632C327.392 496.632 328.52 496.912 329.528 497.472C330.536 498.016 331.328 498.8 331.904 499.824C332.496 500.848 332.792 502.04 332.792 503.4C332.792 504.76 332.488 505.96 331.88 507C331.288 508.024 330.48 508.816 329.456 509.376C328.432 509.936 327.296 510.216 326.048 510.216ZM326.048 508.296C326.832 508.296 327.568 508.112 328.256 507.744C328.944 507.376 329.496 506.824 329.912 506.088C330.344 505.352 330.56 504.456 330.56 503.4C330.56 502.344 330.352 501.448 329.936 500.712C329.52 499.976 328.976 499.432 328.304 499.08C327.632 498.712 326.904 498.528 326.12 498.528C325.32 498.528 324.584 498.712 323.912 499.08C323.256 499.432 322.728 499.976 322.328 500.712C321.928 501.448 321.728 502.344 321.728 503.4C321.728 504.472 321.92 505.376 322.304 506.112C322.704 506.848 323.232 507.4 323.888 507.768C324.544 508.12 325.264 508.296 326.048 508.296ZM342.527 510L337.367 504.192V510H335.183V492.24H337.367V502.68L342.431 496.848H345.479L339.287 503.4L345.503 510H342.527ZM362.861 506.28H355.565L354.221 510H351.917L357.965 493.368H360.485L366.509 510H364.205L362.861 506.28ZM362.237 504.504L359.213 496.056L356.189 504.504H362.237ZM367.849 503.376C367.849 502.032 368.121 500.856 368.665 499.848C369.209 498.824 369.953 498.032 370.897 497.472C371.857 496.912 372.929 496.632 374.113 496.632C375.137 496.632 376.089 496.872 376.969 497.352C377.849 497.816 378.521 498.432 378.985 499.2V492.24H381.193V510H378.985V507.528C378.553 508.312 377.913 508.96 377.065 509.472C376.217 509.968 375.225 510.216 374.089 510.216C372.921 510.216 371.857 509.928 370.897 509.352C369.953 508.776 369.209 507.968 368.665 506.928C368.121 505.888 367.849 504.704 367.849 503.376ZM378.985 503.4C378.985 502.408 378.785 501.544 378.385 500.808C377.985 500.072 377.441 499.512 376.753 499.128C376.081 498.728 375.337 498.528 374.521 498.528C373.705 498.528 372.961 498.72 372.289 499.104C371.617 499.488 371.081 500.048 370.681 500.784C370.281 501.52 370.081 502.384 370.081 503.376C370.081 504.384 370.281 505.264 370.681 506.016C371.081 506.752 371.617 507.32 372.289 507.72C372.961 508.104 373.705 508.296 374.521 508.296C375.337 508.296 376.081 508.104 376.753 507.72C377.441 507.32 377.985 506.752 378.385 506.016C378.785 505.264 378.985 504.392 378.985 503.4ZM389.06 510.216C388.052 510.216 387.148 510.048 386.348 509.712C385.548 509.36 384.916 508.88 384.452 508.272C383.988 507.648 383.732 506.936 383.684 506.136H385.94C386.004 506.792 386.308 507.328 386.852 507.744C387.412 508.16 388.14 508.368 389.036 508.368C389.868 508.368 390.524 508.184 391.004 507.816C391.484 507.448 391.724 506.984 391.724 506.424C391.724 505.848 391.468 505.424 390.956 505.152C390.444 504.864 389.652 504.584 388.58 504.312C387.604 504.056 386.804 503.8 386.18 503.544C385.572 503.272 385.044 502.88 384.596 502.368C384.164 501.84 383.948 501.152 383.948 500.304C383.948 499.632 384.148 499.016 384.548 498.456C384.948 497.896 385.516 497.456 386.252 497.136C386.988 496.8 387.828 496.632 388.772 496.632C390.228 496.632 391.404 497 392.3 497.736C393.196 498.472 393.676 499.48 393.74 500.76H391.556C391.508 500.072 391.228 499.52 390.716 499.104C390.22 498.688 389.548 498.48 388.7 498.48C387.916 498.48 387.292 498.648 386.828 498.984C386.364 499.32 386.132 499.76 386.132 500.304C386.132 500.736 386.268 501.096 386.54 501.384C386.828 501.656 387.18 501.88 387.596 502.056C388.028 502.216 388.62 502.4 389.372 502.608C390.316 502.864 391.084 503.12 391.676 503.376C392.268 503.616 392.772 503.984 393.188 504.48C393.62 504.976 393.844 505.624 393.86 506.424C393.86 507.144 393.66 507.792 393.26 508.368C392.86 508.944 392.292 509.4 391.556 509.736C390.836 510.056 390.004 510.216 389.06 510.216ZM410.541 487.392L403.965 514.08H401.805L408.357 487.392H410.541ZM421.418 493.272V510H419.234V493.272H421.418ZM437.332 498.12C436.868 497.144 436.196 496.392 435.316 495.864C434.436 495.32 433.412 495.048 432.244 495.048C431.076 495.048 430.02 495.32 429.076 495.864C428.148 496.392 427.412 497.16 426.868 498.168C426.34 499.16 426.076 500.312 426.076 501.624C426.076 502.936 426.34 504.088 426.868 505.08C427.412 506.072 428.148 506.84 429.076 507.384C430.02 507.912 431.076 508.176 432.244 508.176C433.876 508.176 435.22 507.688 436.276 506.712C437.332 505.736 437.948 504.416 438.124 502.752H431.452V500.976H440.452V502.656C440.324 504.032 439.892 505.296 439.156 506.448C438.42 507.584 437.452 508.488 436.252 509.16C435.052 509.816 433.716 510.144 432.244 510.144C430.692 510.144 429.276 509.784 427.996 509.064C426.716 508.328 425.7 507.312 424.948 506.016C424.212 504.72 423.844 503.256 423.844 501.624C423.844 499.992 424.212 498.528 424.948 497.232C425.7 495.92 426.716 494.904 427.996 494.184C429.276 493.448 430.692 493.08 432.244 493.08C434.02 493.08 435.588 493.52 436.948 494.4C438.324 495.28 439.324 496.52 439.948 498.12H437.332Z" fill="#070E27"/>
<path d="M325 239.016C325 232.492 330.289 227.203 336.812 227.203C343.336 227.203 348.625 232.492 348.625 239.016V456.562H325V239.016Z" fill="#594FF4"/>
<path d="M656.52 498.12C656.056 497.144 655.384 496.392 654.504 495.864C653.624 495.32 652.6 495.048 651.432 495.048C650.264 495.048 649.208 495.32 648.264 495.864C647.336 496.392 646.6 497.16 646.056 498.168C645.528 499.16 645.264 500.312 645.264 501.624C645.264 502.936 645.528 504.088 646.056 505.08C646.6 506.072 647.336 506.84 648.264 507.384C649.208 507.912 650.264 508.176 651.432 508.176C653.064 508.176 654.408 507.688 655.464 506.712C656.52 505.736 657.136 504.416 657.312 502.752H650.64V500.976H659.64V502.656C659.512 504.032 659.08 505.296 658.344 506.448C657.608 507.584 656.64 508.488 655.44 509.16C654.24 509.816 652.904 510.144 651.432 510.144C649.88 510.144 648.464 509.784 647.184 509.064C645.904 508.328 644.888 507.312 644.136 506.016C643.4 504.72 643.032 503.256 643.032 501.624C643.032 499.992 643.4 498.528 644.136 497.232C644.888 495.92 645.904 494.904 647.184 494.184C648.464 493.448 649.88 493.08 651.432 493.08C653.208 493.08 654.776 493.52 656.136 494.4C657.512 495.28 658.512 496.52 659.136 498.12H656.52ZM667.784 510.216C666.552 510.216 665.432 509.936 664.424 509.376C663.432 508.816 662.648 508.024 662.072 507C661.512 505.96 661.232 504.76 661.232 503.4C661.232 502.056 661.52 500.872 662.096 499.848C662.688 498.808 663.488 498.016 664.496 497.472C665.504 496.912 666.632 496.632 667.88 496.632C669.128 496.632 670.256 496.912 671.264 497.472C672.272 498.016 673.064 498.8 673.64 499.824C674.232 500.848 674.528 502.04 674.528 503.4C674.528 504.76 674.224 505.96 673.616 507C673.024 508.024 672.216 508.816 671.192 509.376C670.168 509.936 669.032 510.216 667.784 510.216ZM667.784 508.296C668.568 508.296 669.304 508.112 669.992 507.744C670.68 507.376 671.232 506.824 671.648 506.088C672.08 505.352 672.296 504.456 672.296 503.4C672.296 502.344 672.088 501.448 671.672 500.712C671.256 499.976 670.712 499.432 670.04 499.08C669.368 498.712 668.64 498.528 667.856 498.528C667.056 498.528 666.32 498.712 665.648 499.08C664.992 499.432 664.464 499.976 664.064 500.712C663.664 501.448 663.464 502.344 663.464 503.4C663.464 504.472 663.656 505.376 664.04 506.112C664.44 506.848 664.968 507.4 665.624 507.768C666.28 508.12 667 508.296 667.784 508.296ZM682.655 510.216C681.423 510.216 680.303 509.936 679.295 509.376C678.303 508.816 677.519 508.024 676.943 507C676.383 505.96 676.103 504.76 676.103 503.4C676.103 502.056 676.391 500.872 676.967 499.848C677.559 498.808 678.359 498.016 679.367 497.472C680.375 496.912 681.503 496.632 682.751 496.632C683.999 496.632 685.127 496.912 686.135 497.472C687.143 498.016 687.935 498.8 688.511 499.824C689.103 500.848 689.399 502.04 689.399 503.4C689.399 504.76 689.095 505.96 688.487 507C687.895 508.024 687.087 508.816 686.063 509.376C685.039 509.936 683.903 510.216 682.655 510.216ZM682.655 508.296C683.439 508.296 684.175 508.112 684.863 507.744C685.551 507.376 686.103 506.824 686.519 506.088C686.951 505.352 687.167 504.456 687.167 503.4C687.167 502.344 686.959 501.448 686.543 500.712C686.127 499.976 685.583 499.432 684.911 499.08C684.239 498.712 683.511 498.528 682.727 498.528C681.927 498.528 681.191 498.712 680.519 499.08C679.863 499.432 679.335 499.976 678.935 500.712C678.535 501.448 678.335 502.344 678.335 503.4C678.335 504.472 678.527 505.376 678.911 506.112C679.311 506.848 679.839 507.4 680.495 507.768C681.151 508.12 681.871 508.296 682.655 508.296ZM697.215 496.632C698.351 496.632 699.343 496.88 700.191 497.376C701.055 497.872 701.695 498.496 702.111 499.248V496.848H704.319V510.288C704.319 511.488 704.063 512.552 703.551 513.48C703.039 514.424 702.303 515.16 701.343 515.688C700.399 516.216 699.295 516.48 698.031 516.48C696.303 516.48 694.863 516.072 693.711 515.256C692.559 514.44 691.879 513.328 691.671 511.92H693.831C694.071 512.72 694.567 513.36 695.319 513.84C696.071 514.336 696.975 514.584 698.031 514.584C699.231 514.584 700.207 514.208 700.959 513.456C701.727 512.704 702.111 511.648 702.111 510.288V507.528C701.679 508.296 701.039 508.936 700.191 509.448C699.343 509.96 698.351 510.216 697.215 510.216C696.047 510.216 694.983 509.928 694.023 509.352C693.079 508.776 692.335 507.968 691.791 506.928C691.247 505.888 690.975 504.704 690.975 503.376C690.975 502.032 691.247 500.856 691.791 499.848C692.335 498.824 693.079 498.032 694.023 497.472C694.983 496.912 696.047 496.632 697.215 496.632ZM702.111 503.4C702.111 502.408 701.911 501.544 701.511 500.808C701.111 500.072 700.567 499.512 699.879 499.128C699.207 498.728 698.463 498.528 697.647 498.528C696.831 498.528 696.087 498.72 695.415 499.104C694.743 499.488 694.207 500.048 693.807 500.784C693.407 501.52 693.207 502.384 693.207 503.376C693.207 504.384 693.407 505.264 693.807 506.016C694.207 506.752 694.743 507.32 695.415 507.72C696.087 508.104 696.831 508.296 697.647 508.296C698.463 508.296 699.207 508.104 699.879 507.72C700.567 507.32 701.111 506.752 701.511 506.016C701.911 505.264 702.111 504.392 702.111 503.4ZM709.714 492.24V510H707.53V492.24H709.714ZM724.956 502.92C724.956 503.336 724.932 503.776 724.884 504.24H714.372C714.452 505.536 714.892 506.552 715.692 507.288C716.508 508.008 717.492 508.368 718.644 508.368C719.588 508.368 720.372 508.152 720.996 507.72C721.636 507.272 722.084 506.68 722.34 505.944H724.692C724.34 507.208 723.636 508.24 722.58 509.04C721.524 509.824 720.212 510.216 718.644 510.216C717.396 510.216 716.276 509.936 715.284 509.376C714.308 508.816 713.54 508.024 712.98 507C712.42 505.96 712.14 504.76 712.14 503.4C712.14 502.04 712.412 500.848 712.956 499.824C713.5 498.8 714.26 498.016 715.236 497.472C716.228 496.912 717.364 496.632 718.644 496.632C719.892 496.632 720.996 496.904 721.956 497.448C722.916 497.992 723.652 498.744 724.164 499.704C724.692 500.648 724.956 501.72 724.956 502.92ZM722.7 502.464C722.7 501.632 722.516 500.92 722.148 500.328C721.78 499.72 721.276 499.264 720.636 498.96C720.012 498.64 719.316 498.48 718.548 498.48C717.444 498.48 716.5 498.832 715.716 499.536C714.948 500.24 714.508 501.216 714.396 502.464H722.7ZM743.165 506.28H735.869L734.525 510H732.221L738.269 493.368H740.789L746.813 510H744.509L743.165 506.28ZM742.541 504.504L739.517 496.056L736.493 504.504H742.541ZM748.153 503.376C748.153 502.032 748.425 500.856 748.969 499.848C749.513 498.824 750.257 498.032 751.201 497.472C752.161 496.912 753.233 496.632 754.417 496.632C755.441 496.632 756.393 496.872 757.273 497.352C758.153 497.816 758.825 498.432 759.289 499.2V492.24H761.497V510H759.289V507.528C758.857 508.312 758.217 508.96 757.369 509.472C756.521 509.968 755.529 510.216 754.393 510.216C753.225 510.216 752.161 509.928 751.201 509.352C750.257 508.776 749.513 507.968 748.969 506.928C748.425 505.888 748.153 504.704 748.153 503.376ZM759.289 503.4C759.289 502.408 759.089 501.544 758.689 500.808C758.289 500.072 757.745 499.512 757.057 499.128C756.385 498.728 755.641 498.528 754.825 498.528C754.009 498.528 753.265 498.72 752.593 499.104C751.921 499.488 751.385 500.048 750.985 500.784C750.585 501.52 750.385 502.384 750.385 503.376C750.385 504.384 750.585 505.264 750.985 506.016C751.385 506.752 751.921 507.32 752.593 507.72C753.265 508.104 754.009 508.296 754.825 508.296C755.641 508.296 756.385 508.104 757.057 507.72C757.745 507.32 758.289 506.752 758.689 506.016C759.089 505.264 759.289 504.392 759.289 503.4ZM769.364 510.216C768.356 510.216 767.452 510.048 766.652 509.712C765.852 509.36 765.22 508.88 764.756 508.272C764.292 507.648 764.036 506.936 763.988 506.136H766.244C766.308 506.792 766.612 507.328 767.156 507.744C767.716 508.16 768.444 508.368 769.34 508.368C770.172 508.368 770.828 508.184 771.308 507.816C771.788 507.448 772.028 506.984 772.028 506.424C772.028 505.848 771.772 505.424 771.26 505.152C770.748 504.864 769.956 504.584 768.884 504.312C767.908 504.056 767.108 503.8 766.484 503.544C765.876 503.272 765.348 502.88 764.9 502.368C764.468 501.84 764.252 501.152 764.252 500.304C764.252 499.632 764.452 499.016 764.852 498.456C765.252 497.896 765.82 497.456 766.556 497.136C767.292 496.8 768.132 496.632 769.076 496.632C770.532 496.632 771.708 497 772.604 497.736C773.5 498.472 773.98 499.48 774.044 500.76H771.86C771.812 500.072 771.532 499.52 771.02 499.104C770.524 498.688 769.852 498.48 769.004 498.48C768.22 498.48 767.596 498.648 767.132 498.984C766.668 499.32 766.436 499.76 766.436 500.304C766.436 500.736 766.572 501.096 766.844 501.384C767.132 501.656 767.484 501.88 767.9 502.056C768.332 502.216 768.924 502.4 769.676 502.608C770.62 502.864 771.388 503.12 771.98 503.376C772.572 503.616 773.076 503.984 773.492 504.48C773.924 504.976 774.148 505.624 774.164 506.424C774.164 507.144 773.964 507.792 773.564 508.368C773.164 508.944 772.596 509.4 771.86 509.736C771.14 510.056 770.308 510.216 769.364 510.216Z" fill="#070E27"/>
<path d="M690.625 282.328C690.625 275.804 695.914 270.516 702.438 270.516C708.961 270.516 714.25 275.804 714.25 282.328V456.562H690.625V282.328Z" fill="#594FF4"/>
<path d="M1032.87 493.272L1028.02 510H1025.58L1021.69 496.536L1017.66 510L1015.23 510.024L1010.55 493.272H1012.88L1016.53 507.456L1020.56 493.272H1023.01L1026.85 507.408L1030.52 493.272H1032.87ZM1046.78 502.92C1046.78 503.336 1046.76 503.776 1046.71 504.24H1036.2C1036.28 505.536 1036.72 506.552 1037.52 507.288C1038.33 508.008 1039.32 508.368 1040.47 508.368C1041.41 508.368 1042.2 508.152 1042.82 507.72C1043.46 507.272 1043.91 506.68 1044.17 505.944H1046.52C1046.17 507.208 1045.46 508.24 1044.41 509.04C1043.35 509.824 1042.04 510.216 1040.47 510.216C1039.22 510.216 1038.1 509.936 1037.11 509.376C1036.13 508.816 1035.37 508.024 1034.81 507C1034.25 505.96 1033.97 504.76 1033.97 503.4C1033.97 502.04 1034.24 500.848 1034.78 499.824C1035.33 498.8 1036.09 498.016 1037.06 497.472C1038.05 496.912 1039.19 496.632 1040.47 496.632C1041.72 496.632 1042.82 496.904 1043.78 497.448C1044.74 497.992 1045.48 498.744 1045.99 499.704C1046.52 500.648 1046.78 501.72 1046.78 502.92ZM1044.53 502.464C1044.53 501.632 1044.34 500.92 1043.97 500.328C1043.61 499.72 1043.1 499.264 1042.46 498.96C1041.84 498.64 1041.14 498.48 1040.37 498.48C1039.27 498.48 1038.33 498.832 1037.54 499.536C1036.77 500.24 1036.33 501.216 1036.22 502.464H1044.53ZM1051.37 499.296C1051.82 498.512 1052.47 497.872 1053.34 497.376C1054.2 496.88 1055.18 496.632 1056.29 496.632C1057.47 496.632 1058.54 496.912 1059.48 497.472C1060.42 498.032 1061.17 498.824 1061.71 499.848C1062.26 500.856 1062.53 502.032 1062.53 503.376C1062.53 504.704 1062.26 505.888 1061.71 506.928C1061.17 507.968 1060.42 508.776 1059.46 509.352C1058.51 509.928 1057.46 510.216 1056.29 510.216C1055.15 510.216 1054.15 509.968 1053.29 509.472C1052.44 508.976 1051.8 508.344 1051.37 507.576V510H1049.18V492.24H1051.37V499.296ZM1060.3 503.376C1060.3 502.384 1060.1 501.52 1059.7 500.784C1059.3 500.048 1058.75 499.488 1058.06 499.104C1057.39 498.72 1056.65 498.528 1055.83 498.528C1055.03 498.528 1054.29 498.728 1053.6 499.128C1052.93 499.512 1052.38 500.08 1051.97 500.832C1051.57 501.568 1051.37 502.424 1051.37 503.4C1051.37 504.392 1051.57 505.264 1051.97 506.016C1052.38 506.752 1052.93 507.32 1053.6 507.72C1054.29 508.104 1055.03 508.296 1055.83 508.296C1056.65 508.296 1057.39 508.104 1058.06 507.72C1058.75 507.32 1059.3 506.752 1059.7 506.016C1060.1 505.264 1060.3 504.384 1060.3 503.376ZM1069.58 510.216C1068.57 510.216 1067.67 510.048 1066.87 509.712C1066.07 509.36 1065.44 508.88 1064.97 508.272C1064.51 507.648 1064.25 506.936 1064.2 506.136H1066.46C1066.52 506.792 1066.83 507.328 1067.37 507.744C1067.93 508.16 1068.66 508.368 1069.56 508.368C1070.39 508.368 1071.04 508.184 1071.52 507.816C1072 507.448 1072.24 506.984 1072.24 506.424C1072.24 505.848 1071.99 505.424 1071.48 505.152C1070.96 504.864 1070.17 504.584 1069.1 504.312C1068.12 504.056 1067.32 503.8 1066.7 503.544C1066.09 503.272 1065.56 502.88 1065.12 502.368C1064.68 501.84 1064.47 501.152 1064.47 500.304C1064.47 499.632 1064.67 499.016 1065.07 498.456C1065.47 497.896 1066.04 497.456 1066.77 497.136C1067.51 496.8 1068.35 496.632 1069.29 496.632C1070.75 496.632 1071.92 497 1072.82 497.736C1073.72 498.472 1074.2 499.48 1074.26 500.76H1072.08C1072.03 500.072 1071.75 499.52 1071.24 499.104C1070.74 498.688 1070.07 498.48 1069.22 498.48C1068.44 498.48 1067.81 498.648 1067.35 498.984C1066.88 499.32 1066.65 499.76 1066.65 500.304C1066.65 500.736 1066.79 501.096 1067.06 501.384C1067.35 501.656 1067.7 501.88 1068.12 502.056C1068.55 502.216 1069.14 502.4 1069.89 502.608C1070.84 502.864 1071.6 503.12 1072.2 503.376C1072.79 503.616 1073.29 503.984 1073.71 504.48C1074.14 504.976 1074.36 505.624 1074.38 506.424C1074.38 507.144 1074.18 507.792 1073.78 508.368C1073.38 508.944 1072.81 509.4 1072.08 509.736C1071.36 510.056 1070.52 510.216 1069.58 510.216ZM1078.11 494.712C1077.69 494.712 1077.34 494.568 1077.05 494.28C1076.77 493.992 1076.62 493.64 1076.62 493.224C1076.62 492.808 1076.77 492.456 1077.05 492.168C1077.34 491.88 1077.69 491.736 1078.11 491.736C1078.51 491.736 1078.85 491.88 1079.12 492.168C1079.41 492.456 1079.55 492.808 1079.55 493.224C1079.55 493.64 1079.41 493.992 1079.12 494.28C1078.85 494.568 1078.51 494.712 1078.11 494.712ZM1079.17 496.848V510H1076.98V496.848H1079.17ZM1085.07 498.648V506.4C1085.07 507.04 1085.21 507.496 1085.48 507.768C1085.75 508.024 1086.22 508.152 1086.9 508.152H1088.5V510H1086.54C1085.32 510 1084.41 509.72 1083.8 509.16C1083.19 508.6 1082.89 507.68 1082.89 506.4V498.648H1081.18V496.848H1082.89V493.536H1085.07V496.848H1088.5V498.648H1085.07ZM1102.67 502.92C1102.67 503.336 1102.65 503.776 1102.6 504.24H1092.09C1092.17 505.536 1092.61 506.552 1093.41 507.288C1094.22 508.008 1095.21 508.368 1096.36 508.368C1097.3 508.368 1098.09 508.152 1098.71 507.72C1099.35 507.272 1099.8 506.68 1100.06 505.944H1102.41C1102.06 507.208 1101.35 508.24 1100.3 509.04C1099.24 509.824 1097.93 510.216 1096.36 510.216C1095.11 510.216 1093.99 509.936 1093 509.376C1092.02 508.816 1091.26 508.024 1090.7 507C1090.14 505.96 1089.86 504.76 1089.86 503.4C1089.86 502.04 1090.13 500.848 1090.67 499.824C1091.22 498.8 1091.98 498.016 1092.95 497.472C1093.94 496.912 1095.08 496.632 1096.36 496.632C1097.61 496.632 1098.71 496.904 1099.67 497.448C1100.63 497.992 1101.37 498.744 1101.88 499.704C1102.41 500.648 1102.67 501.72 1102.67 502.92ZM1100.42 502.464C1100.42 501.632 1100.23 500.92 1099.86 500.328C1099.5 499.72 1098.99 499.264 1098.35 498.96C1097.73 498.64 1097.03 498.48 1096.26 498.48C1095.16 498.48 1094.22 498.832 1093.43 499.536C1092.66 500.24 1092.22 501.216 1092.11 502.464H1100.42Z" fill="#070E27"/>
<path d="M1040 202C1040 195.373 1045.37 190 1052 190C1058.63 190 1064 195.373 1064 202V457H1040V202Z" fill="#594FF4"/>
<rect x="5.99988" y="11" width="1244" height="125" fill="#070E27"/>
<circle cx="101.648" cy="84.5769" r="11.3166" fill="#ED6B60"/>
<circle cx="135.598" cy="84.577" r="11.3166" fill="#EDBE5C"/>
<circle cx="169.547" cy="84.577" r="11.3166" fill="#64C358"/>
</g>
</g>
</g>
<defs>
<filter id="filter0_dddddd_371_167" x="-258.195" y="24.2654" width="1800.39" height="1195.17" filterUnits="userSpaceOnUse" color-interpolation-filters="sRGB">
<feFlood flood-opacity="0" result="BackgroundImageFix"/>
<feColorMatrix in="SourceAlpha" type="matrix" values="0 0 0 0 0 0 0 0 0 0 0 0 0 0 0 0 0 0 127 0" result="hardAlpha"/>
<feOffset dy="6.76377"/>
<feGaussianBlur stdDeviation="5.74921"/>
<feColorMatrix type="matrix" values="0 0 0 0 0 0 0 0 0 0 0 0 0 0 0 0 0 0 0.01 0"/>
<feBlend mode="normal" in2="BackgroundImageFix" result="effect1_dropShadow_371_167"/>
<feColorMatrix in="SourceAlpha" type="matrix" values="0 0 0 0 0 0 0 0 0 0 0 0 0 0 0 0 0 0 127 0" result="hardAlpha"/>
<feOffset dy="29.7606"/>
<feGaussianBlur stdDeviation="11.9042"/>
<feColorMatrix type="matrix" values="0 0 0 0 0 0 0 0 0 0 0 0 0 0 0 0 0 0 0.0117778 0"/>
<feBlend mode="normal" in2="effect1_dropShadow_371_167" result="effect2_dropShadow_371_167"/>
<feColorMatrix in="SourceAlpha" type="matrix" values="0 0 0 0 0 0 0 0 0 0 0 0 0 0 0 0 0 0 127 0" result="hardAlpha"/>
<feOffset dy="73.0488"/>
<feGaussianBlur stdDeviation="23.7408"/>
<feColorMatrix type="matrix" values="0 0 0 0 0 0 0 0 0 0 0 0 0 0 0 0 0 0 0.015 0"/>
<feBlend mode="normal" in2="effect2_dropShadow_371_167" result="effect3_dropShadow_371_167"/>
<feColorMatrix in="SourceAlpha" type="matrix" values="0 0 0 0 0 0 0 0 0 0 0 0 0 0 0 0 0 0 127 0" result="hardAlpha"/>
<feOffset dy="140.686"/>
<feGaussianBlur stdDeviation="46.5348"/>
<feColorMatrix type="matrix" values="0 0 0 0 0 0 0 0 0 0 0 0 0 0 0 0 0 0 0.0182222 0"/>
<feBlend mode="normal" in2="effect3_dropShadow_371_167" result="effect4_dropShadow_371_167"/>
<feColorMatrix in="SourceAlpha" type="matrix" values="0 0 0 0 0 0 0 0 0 0 0 0 0 0 0 0 0 0 127 0" result="hardAlpha"/>
<feOffset dy="236.732"/>
<feGaussianBlur stdDeviation="85.5617"/>
<feColorMatrix type="matrix" values="0 0 0 0 0 0 0 0 0 0 0 0 0 0 0 0 0 0 0.0227778 0"/>
<feBlend mode="normal" in2="effect4_dropShadow_371_167" result="effect5_dropShadow_371_167"/>
<feColorMatrix in="SourceAlpha" type="matrix" values="0 0 0 0 0 0 0 0 0 0 0 0 0 0 0 0 0 0 127 0" result="hardAlpha"/>
<feOffset dy="365.244"/>
<feGaussianBlur stdDeviation="146.098"/>
<feColorMatrix type="matrix" values="0 0 0 0 0 0 0 0 0 0 0 0 0 0 0 0 0 0 0.03 0"/>
<feBlend mode="normal" in2="effect5_dropShadow_371_167" result="effect6_dropShadow_371_167"/>
<feBlend mode="normal" in="SourceGraphic" in2="effect6_dropShadow_371_167" result="shape"/>
</filter>
<clipPath id="clip0_371_167">
<rect width="1290" height="600" fill="white"/>
</clipPath>
<clipPath id="clip1_371_167">
<rect x="34" y="29" width="1216" height="533" rx="20.1183" fill="white"/>
</clipPath>
</defs>
</svg>
