<svg width="410" height="486" viewBox="0 0 410 486" fill="none" xmlns="http://www.w3.org/2000/svg">
<rect width="410" height="486" rx="20" fill="#E9E8FF"/>
<rect x="20" y="20" width="370" height="428" rx="15" fill="white"/>
<path d="M20.5 35C20.5 26.9919 26.9919 20.5 35 20.5H375C383.008 20.5 389.5 26.9919 389.5 35V59.5H20.5V35Z" fill="#594FF4" stroke="white"/>
<circle cx="40" cy="40" r="4.5" fill="#C8A1D6" stroke="white"/>
<circle cx="55" cy="40" r="4.5" fill="#ECC3A6" stroke="white"/>
<circle cx="70" cy="40" r="4.5" fill="#CFDDDB" stroke="white"/>
<circle cx="115" cy="183" r="75" fill="#F5F5F5"/>
<path d="M135 178C135 164.2 123.8 153 110 153C96.2 153 85 164.2 85 178C85 190.1 93.6 200.175 105 202.5V185.5H100V178H105V171.75C105 166.925 108.925 163 113.75 163H120V170.5H115C113.625 170.5 112.5 171.625 112.5 173V178H120V185.5H112.5V202.875C125.125 201.625 135 190.975 135 178Z" fill="#594FF4"/>
<circle cx="275" cy="303" r="75" fill="#F5F5F5"/>
<path d="M292.57 283.003C294.394 282.996 296.219 283.014 298.042 283.058L298.527 283.075C299.087 283.095 299.64 283.12 300.307 283.15C302.967 283.275 304.782 283.695 306.375 284.313C308.025 284.948 309.415 285.808 310.805 287.198C312.076 288.447 313.06 289.957 313.687 291.625C314.305 293.218 314.725 295.035 314.85 297.695C314.88 298.36 314.905 298.915 314.925 299.475L314.94 299.96C314.984 301.783 315.004 303.607 314.997 305.43L315 307.295V310.57C315.006 312.394 314.987 314.219 314.942 316.043L314.927 316.528C314.907 317.088 314.882 317.64 314.852 318.308C314.727 320.968 314.302 322.783 313.687 324.375C313.062 326.044 312.078 327.557 310.805 328.805C309.555 330.076 308.043 331.059 306.375 331.688C304.782 332.305 302.967 332.725 300.307 332.85C299.64 332.88 299.087 332.905 298.527 332.925L298.042 332.94C296.219 332.985 294.394 333.004 292.57 332.998L290.705 333H287.432C285.608 333.006 283.784 332.987 281.96 332.943L281.475 332.928C280.882 332.906 280.288 332.881 279.695 332.853C277.035 332.728 275.22 332.303 273.625 331.688C271.957 331.061 270.446 330.077 269.197 328.805C267.925 327.556 266.941 326.044 266.312 324.375C265.695 322.783 265.275 320.968 265.15 318.308C265.122 317.714 265.097 317.121 265.075 316.528L265.062 316.043C265.016 314.219 264.996 312.394 265 310.57V305.43C264.993 303.607 265.011 301.783 265.055 299.96L265.072 299.475C265.092 298.915 265.117 298.36 265.147 297.695C265.272 295.033 265.692 293.22 266.31 291.625C266.938 289.957 267.925 288.446 269.2 287.2C270.447 285.927 271.957 284.942 273.625 284.313C275.22 283.695 277.032 283.275 279.695 283.15L281.475 283.075L281.96 283.063C283.783 283.017 285.606 282.996 287.43 283L292.57 283.003ZM290 295.503C288.344 295.479 286.699 295.785 285.162 296.403C283.625 297.02 282.227 297.937 281.047 299.1C279.868 300.263 278.931 301.649 278.292 303.177C277.652 304.705 277.323 306.345 277.323 308.001C277.323 309.658 277.652 311.298 278.292 312.826C278.931 314.354 279.868 315.74 281.047 316.902C282.227 318.065 283.625 318.982 285.162 319.6C286.699 320.218 288.344 320.524 290 320.5C293.315 320.5 296.495 319.183 298.839 316.839C301.183 314.495 302.5 311.315 302.5 308C302.5 304.685 301.183 301.505 298.839 299.161C296.495 296.817 293.315 295.503 290 295.503ZM290 300.503C290.996 300.484 291.986 300.665 292.912 301.033C293.838 301.402 294.681 301.951 295.392 302.649C296.103 303.347 296.668 304.18 297.054 305.098C297.439 306.017 297.638 307.004 297.638 308C297.638 308.997 297.44 309.983 297.055 310.902C296.669 311.821 296.105 312.654 295.394 313.352C294.683 314.05 293.84 314.6 292.914 314.969C291.989 315.337 290.999 315.518 290.002 315.5C288.013 315.5 286.106 314.71 284.699 313.303C283.293 311.897 282.502 309.989 282.502 308C282.502 306.011 283.293 304.103 284.699 302.697C286.106 301.29 288.013 300.5 290.002 300.5L290 300.503ZM303.125 291.753C302.318 291.785 301.556 292.128 300.996 292.71C300.437 293.292 300.125 294.068 300.125 294.875C300.125 295.682 300.437 296.458 300.996 297.04C301.556 297.622 302.318 297.965 303.125 297.998C303.954 297.998 304.749 297.668 305.335 297.082C305.921 296.496 306.25 295.701 306.25 294.873C306.25 294.044 305.921 293.249 305.335 292.663C304.749 292.077 303.954 291.748 303.125 291.748V291.753Z" fill="#594FF4"/>
<path d="M292.57 283.003C294.394 282.996 296.219 283.014 298.042 283.058L298.527 283.075C299.087 283.095 299.64 283.12 300.307 283.15C302.967 283.275 304.782 283.695 306.375 284.313C308.025 284.948 309.415 285.808 310.805 287.198C312.076 288.447 313.06 289.957 313.687 291.625C314.305 293.218 314.725 295.035 314.85 297.695C314.88 298.36 314.905 298.915 314.925 299.475L314.94 299.96C314.984 301.783 315.004 303.607 314.997 305.43L315 307.295V310.57C315.006 312.394 314.987 314.219 314.942 316.043L314.927 316.528C314.907 317.088 314.882 317.64 314.852 318.308C314.727 320.968 314.302 322.783 313.687 324.375C313.062 326.044 312.078 327.557 310.805 328.805C309.555 330.076 308.043 331.059 306.375 331.688C304.782 332.305 302.967 332.725 300.307 332.85C299.64 332.88 299.087 332.905 298.527 332.925L298.042 332.94C296.219 332.985 294.394 333.004 292.57 332.998L290.705 333H287.432C285.608 333.006 283.784 332.987 281.96 332.943L281.475 332.928C280.882 332.906 280.288 332.881 279.695 332.853C277.035 332.728 275.22 332.303 273.625 331.688C271.957 331.061 270.446 330.077 269.197 328.805C267.925 327.556 266.941 326.044 266.312 324.375C265.695 322.783 265.275 320.968 265.15 318.308C265.122 317.714 265.097 317.121 265.075 316.528L265.062 316.043C265.016 314.219 264.996 312.394 265 310.57V305.43C264.993 303.607 265.011 301.783 265.055 299.96L265.072 299.475C265.092 298.915 265.117 298.36 265.147 297.695C265.272 295.033 265.692 293.22 266.31 291.625C266.938 289.957 267.925 288.446 269.2 287.2C270.447 285.927 271.957 284.942 273.625 284.313C275.22 283.695 277.032 283.275 279.695 283.15L281.475 283.075L281.96 283.063C283.783 283.017 285.606 282.996 287.43 283L292.57 283.003ZM290 295.503C288.344 295.479 286.699 295.785 285.162 296.403C283.625 297.02 282.227 297.937 281.047 299.1C279.868 300.263 278.931 301.649 278.292 303.177C277.652 304.705 277.323 306.345 277.323 308.001C277.323 309.658 277.652 311.298 278.292 312.826C278.931 314.354 279.868 315.74 281.047 316.902C282.227 318.065 283.625 318.982 285.162 319.6C286.699 320.218 288.344 320.524 290 320.5C293.315 320.5 296.495 319.183 298.839 316.839C301.183 314.495 302.5 311.315 302.5 308C302.5 304.685 301.183 301.505 298.839 299.161C296.495 296.817 293.315 295.503 290 295.503ZM290 300.503C290.996 300.484 291.986 300.665 292.912 301.033C293.838 301.402 294.681 301.951 295.392 302.649C296.103 303.347 296.668 304.18 297.054 305.098C297.439 306.017 297.638 307.004 297.638 308C297.638 308.997 297.44 309.983 297.055 310.902C296.669 311.821 296.105 312.654 295.394 313.352C294.683 314.05 293.84 314.6 292.914 314.969C291.989 315.337 290.999 315.518 290.002 315.5C288.013 315.5 286.106 314.71 284.699 313.303C283.293 311.897 282.502 309.989 282.502 308C282.502 306.011 283.293 304.103 284.699 302.697C286.106 301.29 288.013 300.5 290.002 300.5L290 300.503ZM303.125 291.753C302.318 291.785 301.556 292.128 300.996 292.71C300.437 293.292 300.125 294.068 300.125 294.875C300.125 295.682 300.437 296.458 300.996 297.04C301.556 297.622 302.318 297.965 303.125 297.998C303.954 297.998 304.749 297.668 305.335 297.082C305.921 296.496 306.25 295.701 306.25 294.873C306.25 294.044 305.921 293.249 305.335 292.663C304.749 292.077 303.954 291.748 303.125 291.748V291.753Z" fill="#594FF4"/>
<circle cx="140" cy="343" r="75" fill="#F5F5F5"/>
<path d="M130.86 315.62C123.674 318.082 117.544 323.467 114.142 330.256C112.952 332.602 112.093 335.096 111.581 337.674C110.277 344.083 111.185 350.906 114.142 356.753C116.058 360.568 118.817 363.955 122.154 366.598C125.309 369.109 128.975 370.96 132.875 372C137.782 373.322 143.018 373.289 147.973 372.165C152.45 371.141 156.679 368.994 160.048 365.888C163.616 362.601 166.16 358.29 167.515 353.648C168.985 348.577 169.184 343.175 168.258 337.988C159.007 337.988 149.757 337.988 140.49 337.988C140.49 341.821 140.49 345.67 140.49 349.502C145.842 349.502 151.211 349.502 156.562 349.502C155.934 353.186 153.754 356.54 150.648 358.621C148.699 359.925 146.469 360.785 144.156 361.181C141.827 361.577 139.432 361.627 137.119 361.165C134.757 360.703 132.51 359.711 130.545 358.323C127.406 356.126 125.011 352.889 123.789 349.271C122.534 345.587 122.517 341.474 123.789 337.79C124.665 335.196 126.135 332.784 128.067 330.836C130.446 328.39 133.535 326.656 136.872 325.946C139.73 325.336 142.737 325.451 145.529 326.293C147.907 327.02 150.088 328.309 151.888 330.027C153.706 328.226 155.506 326.41 157.323 324.608C158.264 323.634 159.273 322.708 160.197 321.701C157.454 319.157 154.217 317.109 150.698 315.821C144.388 313.456 137.235 313.407 130.86 315.62Z" fill="white"/>
<path d="M130.86 315.62C137.235 313.406 144.389 313.456 150.731 315.802C154.249 317.09 157.471 319.139 160.23 321.682C159.305 322.673 158.314 323.615 157.356 324.59C155.539 326.391 153.739 328.207 151.922 330.008C150.121 328.29 147.94 326.985 145.562 326.274C142.77 325.432 139.764 325.317 136.906 325.928C133.569 326.637 130.48 328.389 128.101 330.817C126.168 332.767 124.698 335.178 123.822 337.771C120.601 335.276 117.38 332.765 114.159 330.272C117.544 323.466 123.674 318.081 130.86 315.62Z" fill="#594FF4"/>
<path d="M111.581 337.673C112.093 335.097 112.968 332.602 114.142 330.256C117.362 332.751 120.584 335.262 123.805 337.755C122.533 341.439 122.55 345.552 123.805 349.236C120.584 351.731 117.362 354.242 114.142 356.735C111.185 350.922 110.277 344.083 111.581 337.673Z" fill="#594FF4"/>
<path d="M140.506 337.971C149.757 337.971 159.007 337.971 168.275 337.971C169.2 343.157 169.002 348.559 167.531 353.631C166.177 358.272 163.633 362.601 160.064 365.871C156.943 363.443 153.804 361.014 150.698 358.586C153.804 356.521 155.984 353.151 156.612 349.467C151.259 349.467 145.891 349.467 140.539 349.467C140.49 345.652 140.506 341.819 140.506 337.971Z" fill="#594FF4"/>
<path d="M114.141 356.752C117.362 354.257 120.584 351.747 123.805 349.253C125.028 352.887 127.422 356.108 130.561 358.306C132.527 359.693 134.773 360.668 137.135 361.147C139.448 361.609 141.86 361.56 144.172 361.163C146.485 360.767 148.715 359.909 150.665 358.603C153.786 361.031 156.925 363.46 160.031 365.888C156.661 369.01 152.432 371.141 147.955 372.165C143.017 373.288 137.779 373.32 132.858 372C128.959 370.959 125.291 369.109 122.136 366.598C118.816 363.938 116.058 360.552 114.141 356.752Z" fill="#594FF4"/>
<circle cx="265" cy="168" r="75" fill="#F5F5F5"/>
<g clip-path="url(#clip0_41_168)">
<path d="M256.666 183.947C252.432 183.947 249 180.515 249 176.281C249 172.047 252.432 168.615 256.666 168.615C260.9 168.615 264.333 172.047 264.333 176.281C264.333 180.515 260.9 183.947 256.666 183.947ZM293.973 172.446L278.638 145.888C276.521 142.22 271.832 140.963 268.164 143.081C264.497 145.198 263.24 149.887 265.357 153.554L280.692 180.113C282.809 183.78 287.498 185.034 291.166 182.92C294.833 180.803 296.088 176.113 293.973 172.446ZM263.401 149.284L251.999 169.034C253.39 168.136 255.011 167.658 256.667 167.657C261.573 167.642 265.531 171.794 265.28 176.693L271.446 166.013L264.528 154.034C263.666 152.54 263.316 150.892 263.401 149.284Z" fill="#594FF4"/>
</g>
<circle cx="195" cy="243" r="74" fill="#594FF4" stroke="white" stroke-width="2"/>
<path d="M213.75 222.375C213.75 220.883 214.343 219.452 215.398 218.398C216.452 217.343 217.883 216.75 219.375 216.75C220.867 216.75 222.298 217.343 223.352 218.398C224.407 219.452 225 220.883 225 222.375V263.625C225 265.117 224.407 266.548 223.352 267.602C222.298 268.657 220.867 269.25 219.375 269.25C217.883 269.25 216.452 268.657 215.398 267.602C214.343 266.548 213.75 265.117 213.75 263.625V222.375ZM210 225.09C202.249 228.652 192.979 230.644 183.75 231.3V254.689C185.112 254.766 186.472 254.872 187.83 255.007C195.529 255.772 202.972 257.512 210 260.857V225.09ZM180 254.494V231.502C177.45 231.604 174.754 231.664 172.47 231.701C170.484 231.729 168.588 232.535 167.191 233.947C165.793 235.359 165.007 237.264 165 239.25V246.75C165 250.897 168.36 254.235 172.477 254.284C173.098 254.291 173.718 254.301 174.337 254.314C176.226 254.351 178.113 254.411 180 254.494ZM185.212 258.547C186.281 258.626 187.346 258.724 188.4 258.84L189.349 265.177C189.452 265.72 189.434 266.278 189.297 266.813C189.159 267.348 188.905 267.845 188.553 268.271C188.201 268.696 187.759 269.038 187.26 269.273C186.76 269.508 186.215 269.629 185.663 269.629H183.608C182.879 269.629 182.165 269.416 181.555 269.017C180.945 268.618 180.465 268.05 180.172 267.382L175.245 258.082C177.361 258.135 179.476 258.215 181.59 258.322C182.816 258.386 184.028 258.461 185.212 258.547Z" fill="white"/>
<defs>
<clipPath id="clip0_41_168">
<rect width="46" height="46" fill="white" transform="translate(249 140)"/>
</clipPath>
</defs>
</svg>
