<svg width="50" height="50" viewBox="0 0 50 50" fill="none" xmlns="http://www.w3.org/2000/svg">
<circle cx="25" cy="25" r="25" fill="white"/>
<path d="M30.7422 25.705C30.4476 26.8242 29.0556 27.615 26.2714 29.1967C23.58 30.7257 22.2343 31.4903 21.1498 31.183C20.7015 31.0559 20.293 30.8147 19.9635 30.4822C19.1667 29.6782 19.1667 28.1188 19.1667 25C19.1667 21.8812 19.1667 20.3218 19.9635 19.5178C20.293 19.1854 20.7015 18.9441 21.1498 18.817C22.2343 18.5097 23.58 19.2742 26.2714 20.8033C29.0556 22.385 30.4476 23.1758 30.7422 24.295C30.8637 24.757 30.8637 25.243 30.7422 25.705Z" fill="#00B67A" stroke="#00B67A" stroke-width="1.5" stroke-linejoin="round"/>
</svg>
