<svg width="120" height="30" viewBox="0 0 120 30" fill="none" xmlns="http://www.w3.org/2000/svg">
<g id="Trustpilot svg" clip-path="url(#clip0_0_26)">
<g id="Type">
<g id="Group">
<path id="Vector" d="M31.536 10.6326H43.6864V12.9403H38.9089V25.913H36.2817V12.9403H31.5254V10.6326H31.536ZM43.1673 14.849H45.4131V16.9842H45.4555C45.5296 16.6822 45.6673 16.3911 45.8686 16.1107C46.0699 15.8303 46.3135 15.5607 46.5995 15.3343C46.8856 15.097 47.2034 14.9137 47.5529 14.7628C47.9025 14.6226 48.2627 14.5471 48.6228 14.5471C48.8983 14.5471 49.0995 14.5579 49.2055 14.5686C49.3114 14.5794 49.4173 14.601 49.5339 14.6118V16.9626C49.3644 16.9303 49.1949 16.9087 49.0148 16.8871C48.8347 16.8656 48.6652 16.8548 48.4957 16.8548C48.0932 16.8548 47.7118 16.941 47.3517 17.1028C46.9915 17.2645 46.6843 17.5126 46.4195 17.8253C46.1546 18.1488 45.9428 18.537 45.7839 19.0115C45.625 19.486 45.5508 20.0252 45.5508 20.6398V25.9022H43.1567V14.849H43.1673ZM60.5402 25.913H58.1885V24.3709H58.1462C57.8495 24.9317 57.4152 25.3738 56.8326 25.7081C56.25 26.0424 55.6567 26.2149 55.0529 26.2149C53.6228 26.2149 52.5847 25.8591 51.9491 25.1366C51.3135 24.4141 50.9957 23.3249 50.9957 21.8692V14.849H53.3898V21.6319C53.3898 22.6024 53.5699 23.2926 53.9406 23.6916C54.3008 24.0906 54.8199 24.2955 55.4767 24.2955C55.9851 24.2955 56.3983 24.22 56.7372 24.0582C57.0762 23.8965 57.3517 23.6916 57.5529 23.422C57.7648 23.1632 57.9131 22.8397 58.0084 22.473C58.1038 22.1064 58.1462 21.7074 58.1462 21.2761V14.8598H60.5402V25.913ZM64.6186 22.3652C64.6928 23.0769 64.9576 23.573 65.4131 23.8641C65.8792 24.1445 66.43 24.2955 67.0762 24.2955C67.2987 24.2955 67.5529 24.2739 67.8389 24.2415C68.125 24.2092 68.4004 24.1337 68.644 24.0367C68.8983 23.9396 69.0995 23.7886 69.269 23.5945C69.4279 23.4004 69.5021 23.1524 69.4915 22.8397C69.4809 22.5269 69.3644 22.2681 69.1525 22.074C68.9406 21.8691 68.6758 21.7182 68.3474 21.5888C68.019 21.4702 67.6483 21.3623 67.2245 21.2761C66.8008 21.1898 66.3771 21.0927 65.9428 20.9957C65.4978 20.8986 65.0635 20.7692 64.6504 20.629C64.2372 20.4888 63.8665 20.2947 63.5381 20.0467C63.2097 19.8095 62.9449 19.4968 62.7542 19.1193C62.5529 18.7419 62.4576 18.2782 62.4576 17.7175C62.4576 17.1136 62.6059 16.6175 62.8919 16.2078C63.1779 15.798 63.5487 15.4745 63.983 15.2264C64.4279 14.9784 64.9152 14.8059 65.4555 14.6981C65.9957 14.601 66.5148 14.5471 67.0021 14.5471C67.5635 14.5471 68.1038 14.6118 68.6123 14.7304C69.1207 14.849 69.5868 15.0431 70 15.3235C70.4131 15.5931 70.7521 15.9489 71.0275 16.3803C71.3029 16.8116 71.4724 17.34 71.5466 17.9547H69.0466C68.93 17.3724 68.6758 16.9734 68.2627 16.7793C67.8495 16.5744 67.3728 16.4773 66.8432 16.4773C66.6737 16.4773 66.4724 16.4881 66.2394 16.5205C66.0063 16.5528 65.7945 16.6067 65.5826 16.6822C65.3813 16.7577 65.2118 16.8763 65.0635 17.0273C64.9258 17.1783 64.8517 17.3724 64.8517 17.6204C64.8517 17.9223 64.9576 18.1596 65.1589 18.3429C65.3601 18.5262 65.625 18.6772 65.9534 18.8066C66.2817 18.9252 66.6525 19.0331 67.0762 19.1193C67.5 19.2056 67.9343 19.3026 68.3792 19.3997C68.8135 19.4968 69.2372 19.6262 69.661 19.7663C70.0847 19.9065 70.4555 20.1006 70.7839 20.3487C71.1123 20.5967 71.3771 20.8986 71.5784 21.2653C71.7796 21.6319 71.8856 22.0956 71.8856 22.6348C71.8856 23.2926 71.7373 23.8425 71.4406 24.3062C71.144 24.7592 70.7627 25.1366 70.2966 25.417C69.8305 25.6973 69.3008 25.913 68.7288 26.0424C68.1567 26.1718 67.5847 26.2365 67.0233 26.2365C66.3347 26.2365 65.6991 26.161 65.1165 25.9993C64.5339 25.8375 64.0254 25.6003 63.6017 25.2876C63.1779 24.964 62.8389 24.5651 62.5953 24.0906C62.3517 23.6161 62.2245 23.0446 62.2034 22.3868H64.6186V22.3652ZM72.5211 14.849H74.3326V11.5277H76.7267V14.849H78.8877V16.6715H76.7267V22.5809C76.7267 22.8397 76.7372 23.0553 76.7584 23.2495C76.7796 23.4328 76.8326 23.5945 76.9067 23.7239C76.9809 23.8533 77.0974 23.9504 77.2563 24.0151C77.4152 24.0798 77.6165 24.1121 77.8919 24.1121C78.0614 24.1121 78.2309 24.1121 78.4004 24.1014C78.5699 24.0906 78.7394 24.069 78.9089 24.0259V25.913C78.644 25.9454 78.3792 25.9669 78.1356 25.9993C77.8813 26.0316 77.6271 26.0424 77.3622 26.0424C76.7267 26.0424 76.2182 25.9777 75.8368 25.8591C75.4555 25.7405 75.1483 25.5571 74.9364 25.3199C74.7139 25.0827 74.5762 24.7915 74.4915 24.4356C74.4173 24.0798 74.3644 23.67 74.3538 23.2171V16.693H72.5423V14.849H72.5211ZM80.5826 14.849H82.8495V16.3479H82.8919C83.2309 15.7009 83.697 15.248 84.3008 14.9676C84.9046 14.6873 85.5508 14.5471 86.2605 14.5471C87.1186 14.5471 87.8601 14.698 88.4957 15.0108C89.1313 15.3127 89.661 15.7333 90.0847 16.2725C90.5084 16.8116 90.8156 17.4371 91.0275 18.1488C91.2394 18.8605 91.3453 19.6262 91.3453 20.4349C91.3453 21.179 91.25 21.9015 91.0593 22.5917C90.8686 23.2926 90.5826 23.9073 90.2012 24.4464C89.8199 24.9856 89.3326 25.4062 88.7394 25.7297C88.1461 26.0532 87.4576 26.2149 86.6525 26.2149C86.3029 26.2149 85.9533 26.1826 85.6038 26.1179C85.2542 26.0532 84.9152 25.9454 84.5974 25.8052C84.2796 25.665 83.9724 25.4817 83.7076 25.2552C83.4322 25.0287 83.2097 24.7699 83.019 24.4788H82.9767V30H80.5826V14.849ZM88.9512 20.3918C88.9512 19.8958 88.8877 19.4105 88.7606 18.936C88.6334 18.4615 88.4428 18.0518 88.1885 17.6851C87.9343 17.3185 87.6165 17.0273 87.2457 16.8116C86.8644 16.596 86.43 16.4773 85.9428 16.4773C84.9364 16.4773 84.1737 16.8332 83.6652 17.5449C83.1567 18.2566 82.9025 19.2056 82.9025 20.3918C82.9025 20.9525 82.9661 21.4702 83.1038 21.9446C83.2415 22.4191 83.4322 22.8289 83.7076 23.174C83.9724 23.519 84.2902 23.7886 84.661 23.9827C85.0317 24.1876 85.4661 24.2847 85.9534 24.2847C86.5042 24.2847 86.9597 24.1661 87.3411 23.9396C87.7224 23.7131 88.0296 23.4112 88.2733 23.0553C88.5169 22.6887 88.697 22.2789 88.8029 21.8152C88.8983 21.3515 88.9512 20.8771 88.9512 20.3918ZM93.1779 10.6326H95.572V12.9403H93.1779V10.6326ZM93.1779 14.849H95.572V25.913H93.1779V14.849ZM97.7118 10.6326H100.106V25.913H97.7118V10.6326ZM107.447 26.2149C106.578 26.2149 105.805 26.064 105.127 25.7728C104.449 25.4817 103.877 25.0719 103.4 24.5651C102.934 24.0474 102.574 23.4328 102.33 22.7211C102.087 22.0093 101.96 21.2221 101.96 20.3702C101.96 19.5291 102.087 18.7527 102.33 18.041C102.574 17.3293 102.934 16.7146 103.4 16.197C103.866 15.6794 104.449 15.2804 105.127 14.9892C105.805 14.6981 106.578 14.5471 107.447 14.5471C108.316 14.5471 109.089 14.6981 109.767 14.9892C110.445 15.2804 111.017 15.6901 111.494 16.197C111.96 16.7146 112.32 17.3293 112.564 18.041C112.807 18.7527 112.934 19.5291 112.934 20.3702C112.934 21.2221 112.807 22.0093 112.564 22.7211C112.32 23.4328 111.96 24.0474 111.494 24.5651C111.028 25.0827 110.445 25.4817 109.767 25.7728C109.089 26.064 108.316 26.2149 107.447 26.2149ZM107.447 24.2847C107.977 24.2847 108.443 24.1661 108.835 23.9396C109.227 23.7131 109.544 23.4112 109.799 23.0446C110.053 22.6779 110.233 22.2574 110.36 21.7937C110.477 21.33 110.54 20.8555 110.54 20.3702C110.54 19.8957 110.477 19.4321 110.36 18.9576C110.244 18.4831 110.053 18.0733 109.799 17.7067C109.544 17.34 109.227 17.0489 108.835 16.8224C108.443 16.596 107.977 16.4773 107.447 16.4773C106.917 16.4773 106.451 16.596 106.059 16.8224C105.667 17.0489 105.35 17.3508 105.095 17.7067C104.841 18.0733 104.661 18.4831 104.534 18.9576C104.417 19.4321 104.354 19.8957 104.354 20.3702C104.354 20.8555 104.417 21.33 104.534 21.7937C104.65 22.2574 104.841 22.6779 105.095 23.0446C105.35 23.4112 105.667 23.7131 106.059 23.9396C106.451 24.1768 106.917 24.2847 107.447 24.2847ZM113.633 14.849H115.445V11.5277H117.839V14.849H120V16.6715H117.839V22.5809C117.839 22.8397 117.85 23.0553 117.871 23.2495C117.892 23.4328 117.945 23.5945 118.019 23.7239C118.093 23.8533 118.21 23.9504 118.369 24.0151C118.528 24.0798 118.729 24.1121 119.004 24.1121C119.174 24.1121 119.343 24.1121 119.513 24.1014C119.682 24.0906 119.852 24.069 120.021 24.0259V25.913C119.756 25.9454 119.491 25.9669 119.248 25.9993C118.994 26.0316 118.739 26.0424 118.475 26.0424C117.839 26.0424 117.33 25.9777 116.949 25.8591C116.568 25.7405 116.261 25.5571 116.049 25.3199C115.826 25.0827 115.689 24.7915 115.604 24.4356C115.53 24.0798 115.477 23.67 115.466 23.2171V16.693H113.655V14.849H113.633Z" fill="white"/>
</g>
</g>
<g id="Star">
<path id="Vector_2" d="M28.7394 10.6326H17.7648L14.375 0L10.9746 10.6326L0 10.6219L8.88771 17.1999L5.48729 27.8217L14.375 21.2545L23.2521 27.8217L19.8623 17.1999L28.7394 10.6326Z" fill="#00B67A"/>
<path id="Vector_3" d="M20.625 19.6046L19.8623 17.1998L14.375 21.2545L20.625 19.6046Z" fill="#005128"/>
</g>
</g>
<defs>
<clipPath id="clip0_0_26">
<rect width="120" height="30" fill="white"/>
</clipPath>
</defs>
</svg>
