<svg width="410" height="480" viewBox="0 0 410 480" fill="none" xmlns="http://www.w3.org/2000/svg">
<rect width="410" height="480" rx="20" fill="#E9E8FF"/>
<rect x="24" y="73" width="354" height="341" rx="15" fill="white"/>
<path d="M24.5 88C24.5 79.9919 30.9919 73.5 39 73.5H363C371.008 73.5 377.5 79.9919 377.5 88V112.5H24.5V88Z" fill="#0C1227" stroke="white"/>
<circle cx="44.002" cy="93" r="4.5" fill="#2196F3" stroke="white"/>
<circle cx="59.002" cy="93" r="4.5" fill="white" stroke="white"/>
<circle cx="74.002" cy="93" r="4.5" fill="#CFDDDB" stroke="white"/>
<path d="M78.0222 377.606H78.9151V382.877C78.9151 383.348 78.8287 383.747 78.6559 384.076C78.483 384.405 78.2394 384.655 77.925 384.825C77.6106 384.996 77.2397 385.081 76.8125 385.081C76.4093 385.081 76.0504 385.008 75.736 384.861C75.4216 384.712 75.1743 384.501 74.9943 384.228C74.8143 383.954 74.7243 383.629 74.7243 383.252H75.6028C75.6028 383.461 75.6544 383.643 75.7576 383.799C75.8632 383.953 76.0072 384.073 76.1896 384.159C76.3721 384.246 76.5797 384.289 76.8125 384.289C77.0693 384.289 77.2877 384.235 77.4678 384.127C77.6478 384.019 77.7846 383.86 77.8782 383.651C77.9742 383.44 78.0222 383.182 78.0222 382.877V377.606ZM82.2166 385.11C81.8662 385.11 81.5481 385.044 81.2625 384.912C80.9769 384.777 80.7501 384.584 80.582 384.332C80.414 384.077 80.33 383.77 80.33 383.41C80.33 383.093 80.3924 382.837 80.5172 382.64C80.6421 382.441 80.8089 382.285 81.0177 382.172C81.2265 382.059 81.4569 381.975 81.709 381.92C81.9634 381.862 82.219 381.816 82.4758 381.783C82.8119 381.74 83.0843 381.707 83.2931 381.686C83.5043 381.662 83.6579 381.622 83.7539 381.567C83.8524 381.512 83.9016 381.416 83.9016 381.279V381.25C83.9016 380.895 83.8043 380.619 83.6099 380.422C83.4179 380.225 83.1263 380.127 82.735 380.127C82.3294 380.127 82.0114 380.216 81.781 380.393C81.5505 380.571 81.3885 380.76 81.2949 380.962L80.4884 380.674C80.6324 380.338 80.8245 380.076 81.0645 379.889C81.3069 379.699 81.5709 379.567 81.8566 379.493C82.1446 379.416 82.4278 379.378 82.7062 379.378C82.8839 379.378 83.0879 379.399 83.3183 379.443C83.5511 379.483 83.7755 379.569 83.9916 379.698C84.21 379.828 84.3912 380.024 84.5352 380.285C84.6792 380.547 84.7512 380.897 84.7512 381.336V384.98H83.9016V384.231H83.8584C83.8007 384.351 83.7047 384.48 83.5703 384.616C83.4359 384.753 83.2571 384.87 83.0339 384.966C82.8107 385.062 82.5382 385.11 82.2166 385.11ZM82.3462 384.346C82.6822 384.346 82.9655 384.28 83.1959 384.148C83.4287 384.016 83.6039 383.846 83.7215 383.637C83.8415 383.428 83.9016 383.209 83.9016 382.978V382.201C83.8656 382.244 83.7863 382.283 83.6639 382.319C83.5439 382.353 83.4047 382.383 83.2463 382.409C83.0903 382.433 82.9379 382.455 82.7891 382.474C82.6426 382.491 82.5238 382.505 82.4326 382.517C82.2118 382.546 82.0054 382.593 81.8134 382.658C81.6237 382.72 81.4701 382.815 81.3525 382.942C81.2373 383.067 81.1797 383.237 81.1797 383.453C81.1797 383.749 81.2889 383.972 81.5073 384.123C81.7282 384.272 82.0078 384.346 82.3462 384.346ZM87.1518 381.653V384.98H86.3021V379.45H87.123V380.314H87.195C87.3246 380.033 87.5214 379.807 87.7854 379.637C88.0494 379.464 88.3903 379.378 88.8079 379.378C89.1823 379.378 89.51 379.455 89.7908 379.608C90.0716 379.759 90.2901 379.99 90.4461 380.3C90.6021 380.607 90.6801 380.996 90.6801 381.466V384.98H89.8304V381.524C89.8304 381.089 89.7176 380.751 89.492 380.508C89.2664 380.264 88.9567 380.141 88.5631 380.141C88.2919 380.141 88.0494 380.2 87.8358 380.318C87.6246 380.435 87.4578 380.607 87.3354 380.832C87.213 381.058 87.1518 381.332 87.1518 381.653Z" fill="#615E83"/>
<path d="M127.436 384.98V377.606H131.857V378.399H128.329V380.89H131.526V381.682H128.329V384.98H127.436ZM135.184 385.095C134.651 385.095 134.191 384.978 133.805 384.742C133.421 384.505 133.124 384.174 132.915 383.749C132.709 383.321 132.606 382.825 132.606 382.258C132.606 381.692 132.709 381.192 132.915 380.76C133.124 380.326 133.415 379.988 133.787 379.745C134.161 379.5 134.598 379.378 135.097 379.378C135.385 379.378 135.67 379.426 135.951 379.522C136.231 379.618 136.487 379.774 136.717 379.99C136.948 380.204 137.131 380.487 137.268 380.84C137.405 381.192 137.473 381.627 137.473 382.143V382.503H133.211V381.768H136.609C136.609 381.456 136.547 381.178 136.422 380.933C136.3 380.688 136.125 380.495 135.897 380.354C135.671 380.212 135.404 380.141 135.097 380.141C134.759 380.141 134.466 380.225 134.219 380.393C133.974 380.559 133.786 380.775 133.653 381.041C133.521 381.308 133.455 381.593 133.455 381.898V382.388C133.455 382.805 133.527 383.159 133.671 383.45C133.818 383.738 134.021 383.957 134.28 384.109C134.539 384.258 134.84 384.332 135.184 384.332C135.407 384.332 135.608 384.301 135.788 384.238C135.971 384.174 136.128 384.077 136.26 383.95C136.392 383.821 136.494 383.66 136.566 383.468L137.387 383.698C137.301 383.977 137.155 384.222 136.951 384.433C136.747 384.642 136.495 384.805 136.195 384.922C135.895 385.038 135.558 385.095 135.184 385.095ZM138.881 384.98V377.606H139.731V380.328H139.803C139.865 380.232 139.952 380.11 140.062 379.961C140.175 379.81 140.336 379.675 140.545 379.558C140.756 379.438 141.041 379.378 141.401 379.378C141.867 379.378 142.278 379.494 142.633 379.727C142.988 379.96 143.265 380.29 143.464 380.717C143.664 381.144 143.763 381.648 143.763 382.229C143.763 382.815 143.664 383.323 143.464 383.752C143.265 384.18 142.989 384.511 142.636 384.746C142.284 384.979 141.877 385.095 141.416 385.095C141.061 385.095 140.776 385.036 140.563 384.919C140.349 384.799 140.185 384.663 140.069 384.512C139.954 384.358 139.865 384.231 139.803 384.13H139.702V384.98H138.881ZM139.716 382.215C139.716 382.633 139.778 383.001 139.9 383.32C140.022 383.637 140.201 383.885 140.437 384.065C140.672 384.243 140.96 384.332 141.301 384.332C141.656 384.332 141.952 384.238 142.19 384.051C142.43 383.861 142.61 383.607 142.73 383.288C142.852 382.966 142.914 382.609 142.914 382.215C142.914 381.826 142.854 381.476 142.734 381.164C142.616 380.849 142.437 380.601 142.197 380.418C141.959 380.234 141.661 380.141 141.301 380.141C140.955 380.141 140.665 380.229 140.429 380.404C140.194 380.577 140.016 380.819 139.896 381.131C139.776 381.441 139.716 381.802 139.716 382.215Z" fill="#615E83"/>
<path d="M180.813 377.606H181.879L184.385 383.727H184.471L186.977 377.606H188.043V384.98H187.208V379.378H187.136L184.831 384.98H184.025L181.721 379.378H181.649V384.98H180.813V377.606ZM191.345 385.11C190.995 385.11 190.677 385.044 190.391 384.912C190.105 384.777 189.879 384.584 189.711 384.332C189.543 384.077 189.459 383.77 189.459 383.41C189.459 383.093 189.521 382.837 189.646 382.64C189.771 382.441 189.937 382.285 190.146 382.172C190.355 382.059 190.586 381.975 190.838 381.92C191.092 381.862 191.348 381.816 191.604 381.783C191.94 381.74 192.213 381.707 192.422 381.686C192.633 381.662 192.787 381.622 192.883 381.567C192.981 381.512 193.03 381.416 193.03 381.279V381.25C193.03 380.895 192.933 380.619 192.739 380.422C192.547 380.225 192.255 380.127 191.864 380.127C191.458 380.127 191.14 380.216 190.91 380.393C190.679 380.571 190.517 380.76 190.424 380.962L189.617 380.674C189.761 380.338 189.953 380.076 190.193 379.889C190.436 379.699 190.7 379.567 190.985 379.493C191.273 379.416 191.556 379.378 191.835 379.378C192.012 379.378 192.216 379.399 192.447 379.443C192.68 379.483 192.904 379.569 193.12 379.698C193.339 379.828 193.52 380.024 193.664 380.285C193.808 380.547 193.88 380.897 193.88 381.336V384.98H193.03V384.231H192.987C192.929 384.351 192.833 384.48 192.699 384.616C192.565 384.753 192.386 384.87 192.162 384.966C191.939 385.062 191.667 385.11 191.345 385.11ZM191.475 384.346C191.811 384.346 192.094 384.28 192.324 384.148C192.557 384.016 192.733 383.846 192.85 383.637C192.97 383.428 193.03 383.209 193.03 382.978V382.201C192.994 382.244 192.915 382.283 192.793 382.319C192.673 382.353 192.533 382.383 192.375 382.409C192.219 382.433 192.066 382.455 191.918 382.474C191.771 382.491 191.652 382.505 191.561 382.517C191.34 382.546 191.134 382.593 190.942 382.658C190.752 382.72 190.599 382.815 190.481 382.942C190.366 383.067 190.308 383.237 190.308 383.453C190.308 383.749 190.418 383.972 190.636 384.123C190.857 384.272 191.136 384.346 191.475 384.346ZM195.431 384.98V379.45H196.252V380.285H196.309C196.41 380.012 196.592 379.789 196.856 379.619C197.12 379.449 197.418 379.363 197.749 379.363C197.812 379.363 197.89 379.365 197.983 379.367C198.077 379.369 198.148 379.373 198.196 379.378V380.242C198.167 380.235 198.101 380.224 197.998 380.21C197.897 380.193 197.79 380.184 197.677 380.184C197.408 380.184 197.168 380.241 196.957 380.354C196.748 380.464 196.583 380.618 196.46 380.814C196.34 381.009 196.28 381.231 196.28 381.48V384.98H195.431Z" fill="#615E83"/>
<path d="M234.95 384.98H234.014L236.721 377.606H237.643L240.35 384.98H239.414L237.211 378.773H237.153L234.95 384.98ZM235.295 382.1H239.068V382.892H235.295V382.1ZM241.383 387.054V379.45H242.204V380.328H242.305C242.368 380.232 242.454 380.11 242.564 379.961C242.677 379.81 242.838 379.675 243.047 379.558C243.258 379.438 243.544 379.378 243.904 379.378C244.369 379.378 244.78 379.494 245.135 379.727C245.49 379.96 245.767 380.29 245.967 380.717C246.166 381.144 246.266 381.648 246.266 382.229C246.266 382.815 246.166 383.323 245.967 383.752C245.767 384.18 245.491 384.511 245.139 384.746C244.786 384.979 244.379 385.095 243.918 385.095C243.563 385.095 243.278 385.036 243.065 384.919C242.851 384.799 242.687 384.663 242.572 384.512C242.456 384.358 242.368 384.231 242.305 384.13H242.233V387.054H241.383ZM242.219 382.215C242.219 382.633 242.28 383.001 242.402 383.32C242.525 383.637 242.704 383.885 242.939 384.065C243.174 384.243 243.462 384.332 243.803 384.332C244.158 384.332 244.455 384.238 244.692 384.051C244.932 383.861 245.112 383.607 245.232 383.288C245.355 382.966 245.416 382.609 245.416 382.215C245.416 381.826 245.356 381.476 245.236 381.164C245.118 380.849 244.939 380.601 244.699 380.418C244.462 380.234 244.163 380.141 243.803 380.141C243.457 380.141 243.167 380.229 242.932 380.404C242.696 380.577 242.519 380.819 242.399 381.131C242.279 381.441 242.219 381.802 242.219 382.215ZM247.562 384.98V379.45H248.383V380.285H248.44C248.541 380.012 248.723 379.789 248.987 379.619C249.251 379.449 249.549 379.363 249.88 379.363C249.943 379.363 250.021 379.365 250.114 379.367C250.208 379.369 250.279 379.373 250.327 379.378V380.242C250.298 380.235 250.232 380.224 250.129 380.21C250.028 380.193 249.921 380.184 249.808 380.184C249.539 380.184 249.299 380.241 249.088 380.354C248.879 380.464 248.714 380.618 248.591 380.814C248.471 381.009 248.411 381.231 248.411 381.48V384.98H247.562Z" fill="#615E83"/>
<path d="M287.493 377.606H288.559L291.065 383.727H291.151L293.657 377.606H294.723V384.98H293.887V379.378H293.815L291.511 384.98H290.705L288.4 379.378H288.328V384.98H287.493V377.606ZM298.025 385.11C297.675 385.11 297.356 385.044 297.071 384.912C296.785 384.777 296.558 384.584 296.39 384.332C296.222 384.077 296.138 383.77 296.138 383.41C296.138 383.093 296.201 382.837 296.326 382.64C296.45 382.441 296.617 382.285 296.826 382.172C297.035 382.059 297.265 381.975 297.517 381.92C297.772 381.862 298.027 381.816 298.284 381.783C298.62 381.74 298.893 381.707 299.101 381.686C299.313 381.662 299.466 381.622 299.562 381.567C299.661 381.512 299.71 381.416 299.71 381.279V381.25C299.71 380.895 299.613 380.619 299.418 380.422C299.226 380.225 298.935 380.127 298.543 380.127C298.138 380.127 297.82 380.216 297.589 380.393C297.359 380.571 297.197 380.76 297.103 380.962L296.297 380.674C296.441 380.338 296.633 380.076 296.873 379.889C297.115 379.699 297.379 379.567 297.665 379.493C297.953 379.416 298.236 379.378 298.515 379.378C298.692 379.378 298.896 379.399 299.127 379.443C299.359 379.483 299.584 379.569 299.8 379.698C300.018 379.828 300.2 380.024 300.344 380.285C300.488 380.547 300.56 380.897 300.56 381.336V384.98H299.71V384.231H299.667C299.609 384.351 299.513 384.48 299.379 384.616C299.244 384.753 299.065 384.87 298.842 384.966C298.619 385.062 298.347 385.11 298.025 385.11ZM298.155 384.346C298.491 384.346 298.774 384.28 299.004 384.148C299.237 384.016 299.412 383.846 299.53 383.637C299.65 383.428 299.71 383.209 299.71 382.978V382.201C299.674 382.244 299.595 382.283 299.472 382.319C299.352 382.353 299.213 382.383 299.055 382.409C298.899 382.433 298.746 382.455 298.597 382.474C298.451 382.491 298.332 382.505 298.241 382.517C298.02 382.546 297.814 382.593 297.622 382.658C297.432 382.72 297.278 382.815 297.161 382.942C297.046 383.067 296.988 383.237 296.988 383.453C296.988 383.749 297.097 383.972 297.316 384.123C297.536 384.272 297.816 384.346 298.155 384.346ZM302.46 387.054C302.316 387.054 302.187 387.042 302.074 387.018C301.962 386.996 301.884 386.975 301.84 386.953L302.056 386.204C302.263 386.257 302.445 386.276 302.604 386.262C302.762 386.247 302.902 386.176 303.025 386.049C303.15 385.924 303.264 385.722 303.367 385.441L303.525 385.009L301.48 379.45H302.402L303.929 383.857H303.986L305.513 379.45H306.434L304.087 385.786C303.981 386.072 303.851 386.309 303.695 386.496C303.539 386.685 303.357 386.826 303.151 386.917C302.947 387.008 302.716 387.054 302.46 387.054Z" fill="#615E83"/>
<path d="M345.672 377.606H346.565V382.877C346.565 383.348 346.479 383.747 346.306 384.076C346.133 384.405 345.89 384.655 345.575 384.825C345.261 384.996 344.89 385.081 344.463 385.081C344.059 385.081 343.701 385.008 343.386 384.861C343.072 384.712 342.824 384.501 342.644 384.228C342.464 383.954 342.374 383.629 342.374 383.252H343.253C343.253 383.461 343.305 383.643 343.408 383.799C343.513 383.953 343.657 384.073 343.84 384.159C344.022 384.246 344.23 384.289 344.463 384.289C344.719 384.289 344.938 384.235 345.118 384.127C345.298 384.019 345.435 383.86 345.528 383.651C345.624 383.44 345.672 383.182 345.672 382.877V377.606ZM351.725 382.719V379.45H352.574V384.98H351.725V384.044H351.667C351.537 384.325 351.336 384.564 351.062 384.76C350.788 384.955 350.443 385.052 350.025 385.052C349.68 385.052 349.372 384.976 349.103 384.825C348.835 384.672 348.623 384.441 348.47 384.134C348.316 383.824 348.239 383.434 348.239 382.964V379.45H349.089V382.906C349.089 383.309 349.202 383.631 349.428 383.871C349.656 384.111 349.946 384.231 350.299 384.231C350.51 384.231 350.725 384.177 350.943 384.069C351.164 383.961 351.349 383.795 351.498 383.572C351.649 383.349 351.725 383.065 351.725 382.719ZM354.98 381.653V384.98H354.13V379.45H354.951V380.314H355.023C355.153 380.033 355.35 379.807 355.614 379.637C355.878 379.464 356.219 379.378 356.636 379.378C357.011 379.378 357.338 379.455 357.619 379.608C357.9 379.759 358.118 379.99 358.274 380.3C358.43 380.607 358.508 380.996 358.508 381.466V384.98H357.659V381.524C357.659 381.089 357.546 380.751 357.32 380.508C357.095 380.264 356.785 380.141 356.391 380.141C356.12 380.141 355.878 380.2 355.664 380.318C355.453 380.435 355.286 380.607 355.164 380.832C355.041 381.058 354.98 381.332 354.98 381.653Z" fill="#615E83"/>
<path d="M40.6209 360.248C40.001 360.248 39.4729 360.079 39.0368 359.741C38.6006 359.401 38.2673 358.909 38.0369 358.264C37.8065 357.617 37.6913 356.835 37.6913 355.919C37.6913 355.008 37.8065 354.231 38.0369 353.586C38.2701 352.939 38.6047 352.445 39.0409 352.105C39.4798 351.762 40.0065 351.59 40.6209 351.59C41.2354 351.59 41.7607 351.762 42.1968 352.105C42.6357 352.445 42.9704 352.939 43.2008 353.586C43.434 354.231 43.5506 355.008 43.5506 355.919C43.5506 356.835 43.4353 357.617 43.2049 358.264C42.9745 358.909 42.6412 359.401 42.2051 359.741C41.7689 360.079 41.2409 360.248 40.6209 360.248ZM40.6209 359.342C41.2354 359.342 41.7127 359.046 42.0528 358.454C42.393 357.861 42.563 357.016 42.563 355.919C42.563 355.189 42.4849 354.568 42.3285 354.055C42.1749 353.542 41.9527 353.151 41.6619 352.882C41.3739 352.613 41.0269 352.479 40.6209 352.479C40.0119 352.479 39.536 352.779 39.1931 353.38C38.8502 353.978 38.6788 354.824 38.6788 355.919C38.6788 356.649 38.7556 357.269 38.9092 357.779C39.0628 358.289 39.2836 358.677 39.5717 358.943C39.8624 359.209 40.2122 359.342 40.6209 359.342Z" fill="#615E83"/>
<path d="M40.5057 313.255C40.0229 313.255 39.5881 313.159 39.2013 312.967C38.8146 312.775 38.5046 312.512 38.2714 312.177C38.0383 311.843 37.9107 311.461 37.8888 311.033H38.8763C38.9147 311.415 39.0875 311.73 39.3947 311.98C39.7047 312.227 40.075 312.35 40.5057 312.35C40.8513 312.35 41.1586 312.269 41.4274 312.107C41.699 311.946 41.9115 311.723 42.0652 311.441C42.2215 311.155 42.2997 310.833 42.2997 310.474C42.2997 310.106 42.2188 309.778 42.0569 309.49C41.8978 309.2 41.6784 308.971 41.3986 308.803C41.1188 308.636 40.7992 308.551 40.4399 308.548C40.182 308.545 39.9173 308.585 39.6457 308.667C39.3742 308.747 39.1506 308.85 38.975 308.976L38.0204 308.861L38.5307 304.713H42.9087V305.619H39.3865L39.0903 308.104H39.1396C39.3124 307.967 39.5292 307.853 39.7897 307.762C40.0503 307.672 40.3219 307.626 40.6045 307.626C41.1202 307.626 41.5796 307.75 41.9829 307.997C42.3888 308.241 42.707 308.576 42.9375 309.001C43.1706 309.426 43.2872 309.911 43.2872 310.457C43.2872 310.995 43.1665 311.475 42.9251 311.898C42.6865 312.317 42.3573 312.649 41.9376 312.893C41.5179 313.135 41.0406 313.255 40.5057 313.255ZM47.6704 313.255C47.0504 313.255 46.5224 313.087 46.0862 312.749C45.6501 312.409 45.3168 311.917 45.0864 311.272C44.8559 310.625 44.7407 309.843 44.7407 308.927C44.7407 308.016 44.8559 307.238 45.0864 306.594C45.3195 305.946 45.6542 305.453 46.0903 305.112C46.5292 304.77 47.0559 304.598 47.6704 304.598C48.2848 304.598 48.8101 304.77 49.2463 305.112C49.6852 305.453 50.0198 305.946 50.2503 306.594C50.4834 307.238 50.6 308.016 50.6 308.927C50.6 309.843 50.4848 310.625 50.2544 311.272C50.024 311.917 49.6907 312.409 49.2545 312.749C48.8184 313.087 48.2903 313.255 47.6704 313.255ZM47.6704 312.35C48.2848 312.35 48.7621 312.054 49.1023 311.461C49.4424 310.869 49.6125 310.024 49.6125 308.927C49.6125 308.197 49.5343 307.576 49.378 307.063C49.2243 306.55 49.0021 306.159 48.7114 305.89C48.4234 305.621 48.0763 305.487 47.6704 305.487C47.0614 305.487 46.5855 305.787 46.2426 306.388C45.8997 306.986 45.7282 307.832 45.7282 308.927C45.7282 309.656 45.8051 310.276 45.9587 310.787C46.1123 311.297 46.3331 311.685 46.6211 311.951C46.9119 312.217 47.2616 312.35 47.6704 312.35ZM53.0853 310.836L53.0688 309.634H53.2663L56.0314 306.82H57.2329L54.2868 309.799H54.2045L53.0853 310.836ZM52.18 313.14V304.713H53.1511V313.14H52.18ZM56.196 313.14L53.7272 310.013L54.4184 309.338L57.4304 313.14H56.196Z" fill="#615E83"/>
<path d="M40.8349 261.263V269.689H39.8144V262.332H39.7651L37.7077 263.698V262.662L39.8144 261.263H40.8349ZM46.007 269.805C45.3871 269.805 44.859 269.636 44.4229 269.299C43.9867 268.958 43.6534 268.466 43.423 267.821C43.1926 267.174 43.0774 266.392 43.0774 265.476C43.0774 264.565 43.1926 263.788 43.423 263.143C43.6562 262.496 43.9908 262.002 44.427 261.662C44.8659 261.319 45.3926 261.147 46.007 261.147C46.6215 261.147 47.1468 261.319 47.5829 261.662C48.0218 262.002 48.3565 262.496 48.5869 263.143C48.8201 263.788 48.9367 264.565 48.9367 265.476C48.9367 266.392 48.8214 267.174 48.591 267.821C48.3606 268.466 48.0273 268.958 47.5912 269.299C47.155 269.636 46.627 269.805 46.007 269.805ZM46.007 268.899C46.6215 268.899 47.0988 268.603 47.4389 268.011C47.7791 267.418 47.9491 266.573 47.9491 265.476C47.9491 264.746 47.871 264.125 47.7146 263.612C47.561 263.099 47.3388 262.708 47.048 262.439C46.76 262.171 46.413 262.036 46.007 262.036C45.398 262.036 44.9221 262.337 44.5792 262.937C44.2363 263.535 44.0649 264.382 44.0649 265.476C44.0649 266.206 44.1417 266.826 44.2953 267.336C44.4489 267.846 44.6697 268.234 44.9578 268.5C45.2485 268.766 45.5983 268.899 46.007 268.899ZM53.2488 269.805C52.6289 269.805 52.1008 269.636 51.6647 269.299C51.2285 268.958 50.8952 268.466 50.6648 267.821C50.4344 267.174 50.3192 266.392 50.3192 265.476C50.3192 264.565 50.4344 263.788 50.6648 263.143C50.898 262.496 51.2326 262.002 51.6688 261.662C52.1077 261.319 52.6344 261.147 53.2488 261.147C53.8633 261.147 54.3886 261.319 54.8248 261.662C55.2636 262.002 55.5983 262.496 55.8287 263.143C56.0619 263.788 56.1785 264.565 56.1785 265.476C56.1785 266.392 56.0633 267.174 55.8328 267.821C55.6024 268.466 55.2691 268.958 54.833 269.299C54.3968 269.636 53.8688 269.805 53.2488 269.805ZM53.2488 268.899C53.8633 268.899 54.3406 268.603 54.6807 268.011C55.0209 267.418 55.191 266.573 55.191 265.476C55.191 264.746 55.1128 264.125 54.9564 263.612C54.8028 263.099 54.5806 262.708 54.2898 262.439C54.0018 262.171 53.6548 262.036 53.2488 262.036C52.6399 262.036 52.1639 262.337 51.821 262.937C51.4782 263.535 51.3067 264.382 51.3067 265.476C51.3067 266.206 51.3835 266.826 51.5371 267.336C51.6907 267.846 51.9116 268.234 52.1996 268.5C52.4904 268.766 52.8401 268.899 53.2488 268.899ZM58.6637 267.385L58.6473 266.184H58.8448L61.6098 263.369H62.8113L59.8652 266.348H59.7829L58.6637 267.385ZM57.7585 269.689V261.263H58.7296V269.689H57.7585ZM61.7744 269.689L59.3056 266.562L59.9969 265.887L63.0088 269.689H61.7744Z" fill="#615E83"/>
<path d="M40.5057 224.879C40.0229 224.879 39.5881 224.783 39.2013 224.591C38.8146 224.399 38.5046 224.135 38.2714 223.801C38.0383 223.466 37.9107 223.085 37.8888 222.657H38.8763C38.9147 223.038 39.0875 223.354 39.3947 223.603C39.7047 223.85 40.075 223.974 40.5057 223.974C40.8513 223.974 41.1586 223.893 41.4274 223.731C41.699 223.569 41.9115 223.347 42.0652 223.064C42.2215 222.779 42.2997 222.457 42.2997 222.097C42.2997 221.73 42.2188 221.402 42.0569 221.114C41.8978 220.823 41.6784 220.594 41.3986 220.427C41.1188 220.259 40.7992 220.174 40.4399 220.172C40.182 220.169 39.9173 220.209 39.6457 220.291C39.3742 220.371 39.1506 220.473 38.975 220.6L38.0204 220.484L38.5307 216.337H42.9087V217.242H39.3865L39.0903 219.727H39.1396C39.3124 219.59 39.5292 219.476 39.7897 219.386C40.0503 219.295 40.3219 219.25 40.6045 219.25C41.1202 219.25 41.5796 219.373 41.9829 219.62C42.3888 219.864 42.707 220.199 42.9375 220.624C43.1706 221.049 43.2872 221.535 43.2872 222.081C43.2872 222.619 43.1665 223.099 42.9251 223.521C42.6865 223.941 42.3573 224.273 41.9376 224.517C41.5179 224.758 41.0406 224.879 40.5057 224.879ZM47.6704 224.879C47.0504 224.879 46.5224 224.71 46.0862 224.373C45.6501 224.033 45.3168 223.54 45.0864 222.896C44.8559 222.248 44.7407 221.466 44.7407 220.55C44.7407 219.64 44.8559 218.862 45.0864 218.217C45.3195 217.57 45.6542 217.076 46.0903 216.736C46.5292 216.393 47.0559 216.222 47.6704 216.222C48.2848 216.222 48.8101 216.393 49.2463 216.736C49.6852 217.076 50.0198 217.57 50.2503 218.217C50.4834 218.862 50.6 219.64 50.6 220.55C50.6 221.466 50.4848 222.248 50.2544 222.896C50.024 223.54 49.6907 224.033 49.2545 224.373C48.8184 224.71 48.2903 224.879 47.6704 224.879ZM47.6704 223.974C48.2848 223.974 48.7621 223.677 49.1023 223.085C49.4424 222.492 49.6125 221.647 49.6125 220.55C49.6125 219.821 49.5343 219.199 49.378 218.686C49.2243 218.173 49.0021 217.782 48.7114 217.514C48.4234 217.245 48.0763 217.11 47.6704 217.11C47.0614 217.11 46.5855 217.411 46.2426 218.011C45.8997 218.609 45.7282 219.456 45.7282 220.55C45.7282 221.28 45.8051 221.9 45.9587 222.41C46.1123 222.92 46.3331 223.308 46.6211 223.575C46.9119 223.841 47.2616 223.974 47.6704 223.974ZM54.9122 224.879C54.2922 224.879 53.7642 224.71 53.328 224.373C52.8919 224.033 52.5586 223.54 52.3282 222.896C52.0978 222.248 51.9825 221.466 51.9825 220.55C51.9825 219.64 52.0978 218.862 52.3282 218.217C52.5613 217.57 52.896 217.076 53.3322 216.736C53.7711 216.393 54.2977 216.222 54.9122 216.222C55.5266 216.222 56.052 216.393 56.4881 216.736C56.927 217.076 57.2617 217.57 57.4921 218.217C57.7253 218.862 57.8418 219.64 57.8418 220.55C57.8418 221.466 57.7266 222.248 57.4962 222.896C57.2658 223.54 56.9325 224.033 56.4963 224.373C56.0602 224.71 55.5321 224.879 54.9122 224.879ZM54.9122 223.974C55.5266 223.974 56.0039 223.677 56.3441 223.085C56.6842 222.492 56.8543 221.647 56.8543 220.55C56.8543 219.821 56.7761 219.199 56.6198 218.686C56.4662 218.173 56.244 217.782 55.9532 217.514C55.6652 217.245 55.3182 217.11 54.9122 217.11C54.3032 217.11 53.8273 217.411 53.4844 218.011C53.1415 218.609 52.9701 219.456 52.9701 220.55C52.9701 221.28 53.0469 221.9 53.2005 222.41C53.3541 222.92 53.5749 223.308 53.8629 223.575C54.1537 223.841 54.5035 223.974 54.9122 223.974ZM60.3271 222.459L60.3106 221.258H60.5081L63.2732 218.444H64.4747L61.5286 221.423H61.4463L60.3271 222.459ZM59.4219 224.764V216.337H60.3929V224.764H59.4219ZM63.4378 224.764L60.969 221.637L61.6602 220.962L64.6722 224.764H63.4378Z" fill="#615E83"/>
<path d="M79.1375 271.339C82.3531 267.531 93.2015 262.962 110.87 275.147C132.956 290.379 162.15 313.226 186.521 286.825C210.892 260.423 244.655 201.527 355.339 296.979" stroke="#070E27" stroke-width="2.17255" stroke-linecap="round"/>
<path d="M78.3779 297.346C87.6444 282.953 116.036 261.382 155.469 290.248C204.76 326.331 228.49 308.777 260.021 292.524C291.553 276.27 319.183 293.499 333.486 302.601C347.789 311.703 349.057 313.003 358.5 313.003" stroke="#594FF4" stroke-width="2.17255" stroke-linecap="round"/>
<line x1="78.6707" y1="219.919" x2="358.638" y2="219.919" stroke="#E5E5EF" stroke-width="0.724182" stroke-linecap="round"/>
<line x1="78.6707" y1="266.267" x2="358.638" y2="266.267" stroke="#E5E5EF" stroke-width="0.724182" stroke-linecap="round"/>
<line x1="78.6707" y1="312.614" x2="358.638" y2="312.614" stroke="#E5E5EF" stroke-width="0.724182" stroke-linecap="round"/>
<line x1="78.6707" y1="358.962" x2="358.638" y2="358.962" stroke="#E5E5EF" stroke-width="0.724182" stroke-linecap="round"/>
<g filter="url(#filter0_d_41_99)">
<circle cx="242.344" cy="246.083" r="6.84136" fill="#0C1227"/>
<circle cx="242.344" cy="246.083" r="6.11718" stroke="white" stroke-width="1.44836"/>
</g>
<line x1="37.7893" y1="190.228" x2="359" y2="190.228" stroke="#E5E5EF" stroke-width="0.724182"/>
<path d="M44.1218 141.89C44.0662 141.421 43.841 141.057 43.4459 140.797C43.0509 140.538 42.5664 140.409 41.9924 140.409C41.5727 140.409 41.2055 140.476 40.8907 140.612C40.5791 140.748 40.3353 140.935 40.1594 141.172C39.9865 141.41 39.9001 141.68 39.9001 141.982C39.9001 142.235 39.9603 142.453 40.0807 142.635C40.2041 142.814 40.3615 142.964 40.5528 143.084C40.7442 143.201 40.9447 143.299 41.1546 143.376C41.3644 143.45 41.5573 143.51 41.7332 143.556L42.6961 143.816C42.9429 143.88 43.2176 143.97 43.52 144.084C43.8255 144.198 44.1172 144.354 44.3949 144.552C44.6757 144.746 44.9072 144.996 45.0892 145.301C45.2713 145.607 45.3624 145.982 45.3624 146.426C45.3624 146.939 45.2281 147.401 44.9596 147.815C44.6942 148.228 44.3054 148.557 43.7931 148.801C43.2839 149.045 42.6652 149.167 41.9369 149.167C41.258 149.167 40.6701 149.057 40.1732 148.838C39.6795 148.619 39.2906 148.313 39.0067 147.921C38.7259 147.53 38.567 147.074 38.5299 146.556H39.715C39.7458 146.914 39.8662 147.21 40.076 147.445C40.289 147.676 40.5575 147.849 40.8815 147.963C41.2086 148.074 41.5604 148.13 41.9369 148.13C42.3751 148.13 42.7686 148.059 43.1173 147.917C43.466 147.772 43.7422 147.571 43.9459 147.315C44.1496 147.056 44.2514 146.753 44.2514 146.408C44.2514 146.093 44.1634 145.837 43.9875 145.639C43.8116 145.442 43.5802 145.281 43.2932 145.158C43.0062 145.034 42.6961 144.926 42.3628 144.834L41.1963 144.501C40.4556 144.288 39.8693 143.984 39.4372 143.589C39.0052 143.194 38.7892 142.677 38.7892 142.038C38.7892 141.507 38.9327 141.044 39.2197 140.649C39.5098 140.251 39.8986 139.943 40.3862 139.723C40.8769 139.501 41.4246 139.39 42.0295 139.39C42.6405 139.39 43.1836 139.5 43.6589 139.719C44.1341 139.935 44.5106 140.231 44.7884 140.608C45.0692 140.984 45.2173 141.412 45.2327 141.89H44.1218ZM50.1939 141.89V142.816H46.5092V141.89H50.1939ZM47.5831 140.186H48.6756V146.963C48.6756 147.272 48.7203 147.503 48.8098 147.658C48.9024 147.809 49.0197 147.911 49.1616 147.963C49.3067 148.012 49.4594 148.037 49.6199 148.037C49.7402 148.037 49.839 148.031 49.9161 148.019C49.9933 148.003 50.055 147.991 50.1013 147.982L50.3235 148.963C50.2494 148.991 50.146 149.019 50.0133 149.046C49.8807 149.077 49.7125 149.093 49.5088 149.093C49.2002 149.093 48.8978 149.026 48.6015 148.894C48.3083 148.761 48.0645 148.559 47.8701 148.287C47.6788 148.016 47.5831 147.673 47.5831 147.259V140.186ZM53.9295 149.167C53.4789 149.167 53.07 149.082 52.7028 148.912C52.3356 148.739 52.0439 148.491 51.8279 148.167C51.6119 147.84 51.5039 147.445 51.5039 146.982C51.5039 146.574 51.5841 146.244 51.7446 145.991C51.9051 145.735 52.1195 145.534 52.388 145.389C52.6565 145.244 52.9528 145.136 53.2768 145.065C53.6039 144.991 53.9326 144.933 54.2628 144.889C54.6948 144.834 55.0451 144.792 55.3136 144.764C55.5851 144.734 55.7826 144.683 55.9061 144.612C56.0326 144.541 56.0959 144.417 56.0959 144.241V144.204C56.0959 143.748 55.9709 143.393 55.7209 143.14C55.474 142.887 55.0991 142.76 54.5961 142.76C54.0745 142.76 53.6656 142.874 53.3694 143.103C53.0731 143.331 52.8648 143.575 52.7445 143.834L51.7076 143.464C51.8927 143.032 52.1396 142.695 52.4482 142.455C52.7599 142.211 53.0994 142.041 53.4666 141.945C53.8369 141.847 54.2011 141.797 54.559 141.797C54.7874 141.797 55.0497 141.825 55.346 141.881C55.6453 141.933 55.9338 142.043 56.2116 142.209C56.4924 142.376 56.7254 142.627 56.9106 142.964C57.0957 143.3 57.1883 143.751 57.1883 144.315V149H56.0959V148.037H56.0403C55.9662 148.191 55.8428 148.357 55.67 148.532C55.4972 148.708 55.2673 148.858 54.9803 148.981C54.6933 149.105 54.343 149.167 53.9295 149.167ZM54.0961 148.185C54.5282 148.185 54.8923 148.1 55.1886 147.931C55.4879 147.761 55.7132 147.542 55.8644 147.273C56.0187 147.005 56.0959 146.723 56.0959 146.426V145.426C56.0496 145.482 55.9477 145.533 55.7903 145.579C55.636 145.622 55.4571 145.661 55.2534 145.695C55.0528 145.726 54.8568 145.754 54.6655 145.778C54.4773 145.8 54.3245 145.818 54.2072 145.834C53.9233 145.871 53.6579 145.931 53.411 146.014C53.1672 146.095 52.9697 146.216 52.8185 146.38C52.6704 146.54 52.5963 146.76 52.5963 147.037C52.5963 147.417 52.7367 147.704 53.0176 147.898C53.3015 148.09 53.661 148.185 54.0961 148.185ZM62.2744 141.89V142.816H58.5897V141.89H62.2744ZM59.6637 140.186H60.7561V146.963C60.7561 147.272 60.8009 147.503 60.8904 147.658C60.9829 147.809 61.1002 147.911 61.2422 147.963C61.3872 148.012 61.54 148.037 61.7004 148.037C61.8208 148.037 61.9195 148.031 61.9967 148.019C62.0738 148.003 62.1356 147.991 62.1818 147.982L62.404 148.963C62.33 148.991 62.2266 149.019 62.0939 149.046C61.9612 149.077 61.793 149.093 61.5893 149.093C61.2807 149.093 60.9783 149.026 60.682 148.894C60.3889 148.761 60.1451 148.559 59.9507 148.287C59.7593 148.016 59.6637 147.673 59.6637 147.259V140.186ZM63.9177 149V141.89H65.0102V149H63.9177ZM64.4732 140.705C64.2603 140.705 64.0767 140.632 63.9224 140.487C63.7711 140.342 63.6955 140.168 63.6955 139.964C63.6955 139.761 63.7711 139.586 63.9224 139.441C64.0767 139.296 64.2603 139.224 64.4732 139.224C64.6861 139.224 64.8682 139.296 65.0194 139.441C65.1737 139.586 65.2509 139.761 65.2509 139.964C65.2509 140.168 65.1737 140.342 65.0194 140.487C64.8682 140.632 64.6861 140.705 64.4732 140.705ZM72.0474 143.482L71.0661 143.76C71.0043 143.596 70.9133 143.437 70.7929 143.283C70.6757 143.126 70.5152 142.996 70.3115 142.894C70.1079 142.793 69.8471 142.742 69.5292 142.742C69.0941 142.742 68.7315 142.842 68.4414 143.042C68.1544 143.24 68.0109 143.491 68.0109 143.797C68.0109 144.069 68.1097 144.283 68.3072 144.44C68.5047 144.598 68.8133 144.729 69.233 144.834L70.2884 145.093C70.9241 145.247 71.3978 145.483 71.7095 145.801C72.0212 146.116 72.177 146.522 72.177 147.019C72.177 147.426 72.0598 147.79 71.8252 148.111C71.5938 148.432 71.2697 148.685 70.8531 148.87C70.4365 149.056 69.952 149.148 69.3996 149.148C68.6744 149.148 68.0742 148.991 67.5989 148.676C67.1237 148.361 66.8228 147.901 66.6963 147.297L67.7332 147.037C67.8319 147.42 68.0186 147.707 68.2933 147.898C68.571 148.09 68.9336 148.185 69.3811 148.185C69.8903 148.185 70.2946 148.077 70.5939 147.861C70.8963 147.642 71.0475 147.38 71.0475 147.074C71.0475 146.827 70.9611 146.621 70.7883 146.454C70.6155 146.284 70.3501 146.158 69.9921 146.074L68.8071 145.797C68.156 145.642 67.6776 145.403 67.3721 145.079C67.0697 144.752 66.9185 144.343 66.9185 143.853C66.9185 143.451 67.0311 143.096 67.2564 142.788C67.4848 142.479 67.7949 142.237 68.1868 142.061C68.5818 141.885 69.0293 141.797 69.5292 141.797C70.2328 141.797 70.7852 141.952 71.1864 142.26C71.5907 142.569 71.8777 142.976 72.0474 143.482ZM76.9136 141.89V142.816H73.229V141.89H76.9136ZM74.3029 140.186H75.3953V146.963C75.3953 147.272 75.4401 147.503 75.5296 147.658C75.6222 147.809 75.7394 147.911 75.8814 147.963C76.0264 148.012 76.1792 148.037 76.3397 148.037C76.46 148.037 76.5588 148.031 76.6359 148.019C76.7131 148.003 76.7748 147.991 76.8211 147.982L77.0433 148.963C76.9692 148.991 76.8658 149.019 76.7331 149.046C76.6004 149.077 76.4322 149.093 76.2286 149.093C75.92 149.093 75.6175 149.026 75.3213 148.894C75.0281 148.761 74.7843 148.559 74.5899 148.287C74.3986 148.016 74.3029 147.673 74.3029 147.259V140.186ZM78.5569 149V141.89H79.6494V149H78.5569ZM79.1124 140.705C78.8995 140.705 78.7159 140.632 78.5616 140.487C78.4104 140.342 78.3348 140.168 78.3348 139.964C78.3348 139.761 78.4104 139.586 78.5616 139.441C78.7159 139.296 78.8995 139.224 79.1124 139.224C79.3254 139.224 79.5074 139.296 79.6587 139.441C79.813 139.586 79.8901 139.761 79.8901 139.964C79.8901 140.168 79.813 140.342 79.6587 140.487C79.5074 140.632 79.3254 140.705 79.1124 140.705ZM84.5388 149.148C83.8722 149.148 83.2982 148.991 82.8168 148.676C82.3354 148.361 81.9651 147.928 81.7058 147.375C81.4466 146.823 81.317 146.192 81.317 145.482C81.317 144.76 81.4497 144.123 81.7151 143.57C81.9836 143.015 82.357 142.581 82.8353 142.269C83.3167 141.955 83.8784 141.797 84.5203 141.797C85.0202 141.797 85.4707 141.89 85.8719 142.075C86.2731 142.26 86.6018 142.519 86.8579 142.853C87.114 143.186 87.273 143.575 87.3347 144.019H86.2423C86.1589 143.695 85.9738 143.408 85.6868 143.158C85.4029 142.905 85.0202 142.779 84.5388 142.779C84.1129 142.779 83.7395 142.89 83.4186 143.112C83.1007 143.331 82.8523 143.641 82.6733 144.042C82.4974 144.44 82.4094 144.908 82.4094 145.445C82.4094 145.994 82.4958 146.473 82.6687 146.88C82.8446 147.287 83.0914 147.604 83.4093 147.829C83.7302 148.054 84.1067 148.167 84.5388 148.167C84.8227 148.167 85.0804 148.117 85.3118 148.019C85.5433 147.92 85.7392 147.778 85.8997 147.593C86.0602 147.408 86.1744 147.185 86.2423 146.926H87.3347C87.273 147.346 87.1202 147.724 86.8764 148.06C86.6357 148.394 86.3163 148.659 85.9182 148.857C85.5232 149.051 85.0634 149.148 84.5388 149.148ZM93.9681 143.482L92.9867 143.76C92.925 143.596 92.834 143.437 92.7136 143.283C92.5963 143.126 92.4359 142.996 92.2322 142.894C92.0285 142.793 91.7677 142.742 91.4499 142.742C91.0148 142.742 90.6522 142.842 90.3621 143.042C90.0751 143.24 89.9316 143.491 89.9316 143.797C89.9316 144.069 90.0303 144.283 90.2278 144.44C90.4253 144.598 90.7339 144.729 91.1536 144.834L92.209 145.093C92.8448 145.247 93.3185 145.483 93.6301 145.801C93.9418 146.116 94.0977 146.522 94.0977 147.019C94.0977 147.426 93.9804 147.79 93.7459 148.111C93.5144 148.432 93.1904 148.685 92.7738 148.87C92.3572 149.056 91.8727 149.148 91.3203 149.148C90.5951 149.148 89.9948 148.991 89.5196 148.676C89.0443 148.361 88.7435 147.901 88.6169 147.297L89.6538 147.037C89.7526 147.42 89.9393 147.707 90.2139 147.898C90.4917 148.09 90.8543 148.185 91.3018 148.185C91.8109 148.185 92.2152 148.077 92.5146 147.861C92.817 147.642 92.9682 147.38 92.9682 147.074C92.9682 146.827 92.8818 146.621 92.709 146.454C92.5362 146.284 92.2708 146.158 91.9128 146.074L90.7278 145.797C90.0766 145.642 89.5983 145.403 89.2928 145.079C88.9903 144.752 88.8391 144.343 88.8391 143.853C88.8391 143.451 88.9518 143.096 89.177 142.788C89.4054 142.479 89.7155 142.237 90.1075 142.061C90.5025 141.885 90.9499 141.797 91.4499 141.797C92.1535 141.797 92.7059 141.952 93.1071 142.26C93.5113 142.569 93.7983 142.976 93.9681 143.482Z" fill="#9291A5"/>
<defs>
<filter id="filter0_d_41_99" x="229.709" y="239.241" width="25.2695" height="25.2695" filterUnits="userSpaceOnUse" color-interpolation-filters="sRGB">
<feFlood flood-opacity="0" result="BackgroundImageFix"/>
<feColorMatrix in="SourceAlpha" type="matrix" values="0 0 0 0 0 0 0 0 0 0 0 0 0 0 0 0 0 0 127 0" result="hardAlpha"/>
<feOffset dy="5.79346"/>
<feGaussianBlur stdDeviation="2.89673"/>
<feComposite in2="hardAlpha" operator="out"/>
<feColorMatrix type="matrix" values="0 0 0 0 0.0509804 0 0 0 0 0.0392157 0 0 0 0 0.172549 0 0 0 0.08 0"/>
<feBlend mode="normal" in2="BackgroundImageFix" result="effect1_dropShadow_41_99"/>
<feBlend mode="normal" in="SourceGraphic" in2="effect1_dropShadow_41_99" result="shape"/>
</filter>
</defs>
</svg>
